<svg xmlns="http://www.w3.org/2000/svg" xmlns:xlink="http://www.w3.org/1999/xlink" width="500" viewBox="0 0 375 374.999991" height="500" preserveAspectRatio="xMidYMid meet"><defs><clipPath id="061df37c82"><path d="M 78.191406 5.316406 L 296.441406 5.316406 L 296.441406 369.816406 L 78.191406 369.816406 Z M 78.191406 5.316406 " clip-rule="nonzero"></path></clipPath></defs><rect x="-37.5" width="450" fill="#ffffff" y="-37.499999" height="449.999989" fill-opacity="1"></rect><rect x="-37.5" width="450" fill="#ffffff" y="-37.499999" height="449.999989" fill-opacity="1"></rect><g clip-path="url(#061df37c82)"><path fill="#040606" d="M 90.316406 35.691406 C 90.316406 25.632812 98.460938 17.46875 108.503906 17.46875 L 138.816406 17.46875 L 138.816406 23.542969 C 138.816406 33.605469 146.960938 41.769531 157.003906 41.769531 L 217.628906 41.769531 C 227.667969 41.769531 235.816406 33.605469 235.816406 23.542969 L 235.816406 17.46875 L 266.128906 17.46875 C 276.167969 17.46875 284.316406 25.632812 284.316406 35.691406 L 284.316406 339.441406 C 284.316406 349.5 276.167969 357.664062 266.128906 357.664062 L 108.503906 357.664062 C 98.460938 357.664062 90.316406 349.5 90.316406 339.441406 Z M 150.941406 17.46875 L 223.691406 17.46875 L 223.691406 23.542969 C 223.691406 26.890625 220.964844 29.617188 217.628906 29.617188 L 157.003906 29.617188 C 153.664062 29.617188 150.941406 26.890625 150.941406 23.542969 Z M 108.503906 369.816406 L 266.128906 369.816406 C 282.847656 369.816406 296.441406 356.191406 296.441406 339.441406 L 296.441406 35.691406 C 296.441406 18.941406 282.847656 5.320312 266.128906 5.320312 L 108.503906 5.320312 C 91.78125 5.320312 78.191406 18.941406 78.191406 35.691406 L 78.191406 339.441406 C 78.191406 356.191406 91.78125 369.816406 108.503906 369.816406 " fill-opacity="1" fill-rule="nonzero"></path></g><path fill="#040606" d="M 229.753906 333.363281 L 144.878906 333.363281 C 141.539062 333.363281 138.816406 336.09375 138.816406 339.441406 C 138.816406 342.785156 141.539062 345.515625 144.878906 345.515625 L 229.753906 345.515625 C 233.089844 345.515625 235.816406 342.785156 235.816406 339.441406 C 235.816406 336.09375 233.089844 333.363281 229.753906 333.363281 " fill-opacity="1" fill-rule="nonzero"></path><path fill="#040606" d="M 147.152344 137.636719 C 148.265625 138.539062 149.613281 138.96875 150.941406 138.96875 C 152.714844 138.96875 154.46875 138.183594 155.675781 136.6875 C 157.761719 134.078125 157.332031 130.234375 154.730469 128.144531 L 130.335938 108.59375 L 154.730469 89.039062 C 157.332031 86.949219 157.761719 83.105469 155.675781 80.496094 C 153.570312 77.886719 149.78125 77.457031 147.152344 79.546875 L 116.839844 103.847656 C 115.394531 105.007812 114.566406 106.742188 114.566406 108.59375 C 114.566406 110.441406 115.394531 112.175781 116.839844 113.339844 L 147.152344 137.636719 " fill-opacity="1" fill-rule="nonzero"></path><path fill="#040606" d="M 218.953125 136.6875 C 220.160156 138.183594 221.914062 138.96875 223.691406 138.96875 C 225.015625 138.96875 226.367188 138.539062 227.480469 137.636719 L 257.792969 113.339844 C 259.234375 112.175781 260.066406 110.441406 260.066406 108.59375 C 260.066406 106.742188 259.234375 105.007812 257.792969 103.847656 L 227.480469 79.546875 C 224.875 77.457031 221.0625 77.886719 218.953125 80.496094 C 216.871094 83.105469 217.296875 86.949219 219.902344 89.039062 L 244.292969 108.59375 L 219.902344 128.144531 C 217.296875 130.234375 216.871094 134.078125 218.953125 136.6875 " fill-opacity="1" fill-rule="nonzero"></path><path fill="#040606" d="M 180.066406 144.921875 C 180.472656 144.996094 180.851562 145.042969 181.253906 145.042969 C 184.09375 145.042969 186.628906 143.046875 187.195312 140.152344 L 199.320312 79.402344 C 199.984375 76.128906 197.851562 72.925781 194.5625 72.261719 C 191.292969 71.597656 188.097656 73.734375 187.433594 77.03125 L 175.308594 137.78125 C 174.644531 141.054688 176.777344 144.257812 180.066406 144.921875 " fill-opacity="1" fill-rule="nonzero"></path><path fill="#040606" d="M 114.566406 187.566406 L 120.628906 187.566406 C 123.964844 187.566406 126.691406 184.835938 126.691406 181.492188 C 126.691406 178.144531 123.964844 175.417969 120.628906 175.417969 L 114.566406 175.417969 C 111.226562 175.417969 108.503906 178.144531 108.503906 181.492188 C 108.503906 184.835938 111.226562 187.566406 114.566406 187.566406 " fill-opacity="1" fill-rule="nonzero"></path><path fill="#040606" d="M 138.816406 181.492188 C 138.816406 184.835938 141.539062 187.566406 144.878906 187.566406 L 260.066406 187.566406 C 263.402344 187.566406 266.128906 184.835938 266.128906 181.492188 C 266.128906 178.144531 263.402344 175.417969 260.066406 175.417969 L 144.878906 175.417969 C 141.539062 175.417969 138.816406 178.144531 138.816406 181.492188 " fill-opacity="1" fill-rule="nonzero"></path><path fill="#040606" d="M 114.566406 260.464844 L 120.628906 260.464844 C 123.964844 260.464844 126.691406 257.738281 126.691406 254.390625 C 126.691406 251.042969 123.964844 248.316406 120.628906 248.316406 L 114.566406 248.316406 C 111.226562 248.316406 108.503906 251.042969 108.503906 254.390625 C 108.503906 257.738281 111.226562 260.464844 114.566406 260.464844 " fill-opacity="1" fill-rule="nonzero"></path><path fill="#040606" d="M 260.066406 248.316406 L 144.878906 248.316406 C 141.539062 248.316406 138.816406 251.042969 138.816406 254.390625 C 138.816406 257.738281 141.539062 260.464844 144.878906 260.464844 L 260.066406 260.464844 C 263.402344 260.464844 266.128906 257.738281 266.128906 254.390625 C 266.128906 251.042969 263.402344 248.316406 260.066406 248.316406 " fill-opacity="1" fill-rule="nonzero"></path><path fill="#040606" d="M 126.691406 211.867188 L 132.753906 211.867188 C 136.089844 211.867188 138.816406 209.136719 138.816406 205.792969 C 138.816406 202.445312 136.089844 199.714844 132.753906 199.714844 L 126.691406 199.714844 C 123.351562 199.714844 120.628906 202.445312 120.628906 205.792969 C 120.628906 209.136719 123.351562 211.867188 126.691406 211.867188 " fill-opacity="1" fill-rule="nonzero"></path><path fill="#040606" d="M 260.066406 199.714844 L 211.566406 199.714844 C 208.226562 199.714844 205.503906 202.445312 205.503906 205.792969 C 205.503906 209.136719 208.226562 211.867188 211.566406 211.867188 L 260.066406 211.867188 C 263.402344 211.867188 266.128906 209.136719 266.128906 205.792969 C 266.128906 202.445312 263.402344 199.714844 260.066406 199.714844 " fill-opacity="1" fill-rule="nonzero"></path><path fill="#040606" d="M 157.003906 211.867188 L 187.316406 211.867188 C 190.652344 211.867188 193.378906 209.136719 193.378906 205.792969 C 193.378906 202.445312 190.652344 199.714844 187.316406 199.714844 L 157.003906 199.714844 C 153.664062 199.714844 150.941406 202.445312 150.941406 205.792969 C 150.941406 209.136719 153.664062 211.867188 157.003906 211.867188 " fill-opacity="1" fill-rule="nonzero"></path><path fill="#040606" d="M 126.691406 236.164062 L 132.753906 236.164062 C 136.089844 236.164062 138.816406 233.4375 138.816406 230.089844 C 138.816406 226.746094 136.089844 224.015625 132.753906 224.015625 L 126.691406 224.015625 C 123.351562 224.015625 120.628906 226.746094 120.628906 230.089844 C 120.628906 233.4375 123.351562 236.164062 126.691406 236.164062 " fill-opacity="1" fill-rule="nonzero"></path><path fill="#040606" d="M 260.066406 224.015625 L 211.566406 224.015625 C 208.226562 224.015625 205.503906 226.746094 205.503906 230.089844 C 205.503906 233.4375 208.226562 236.164062 211.566406 236.164062 L 260.066406 236.164062 C 263.402344 236.164062 266.128906 233.4375 266.128906 230.089844 C 266.128906 226.746094 263.402344 224.015625 260.066406 224.015625 " fill-opacity="1" fill-rule="nonzero"></path><path fill="#040606" d="M 157.003906 236.164062 L 187.316406 236.164062 C 190.652344 236.164062 193.378906 233.4375 193.378906 230.089844 C 193.378906 226.746094 190.652344 224.015625 187.316406 224.015625 L 157.003906 224.015625 C 153.664062 224.015625 150.941406 226.746094 150.941406 230.089844 C 150.941406 233.4375 153.664062 236.164062 157.003906 236.164062 " fill-opacity="1" fill-rule="nonzero"></path><path fill="#040606" d="M 120.628906 278.691406 C 120.628906 282.035156 123.351562 284.765625 126.691406 284.765625 L 132.753906 284.765625 C 136.089844 284.765625 138.816406 282.035156 138.816406 278.691406 C 138.816406 275.34375 136.089844 272.617188 132.753906 272.617188 L 126.691406 272.617188 C 123.351562 272.617188 120.628906 275.34375 120.628906 278.691406 " fill-opacity="1" fill-rule="nonzero"></path><path fill="#040606" d="M 260.066406 272.617188 L 211.566406 272.617188 C 208.226562 272.617188 205.503906 275.34375 205.503906 278.691406 C 205.503906 282.035156 208.226562 284.765625 211.566406 284.765625 L 260.066406 284.765625 C 263.402344 284.765625 266.128906 282.035156 266.128906 278.691406 C 266.128906 275.34375 263.402344 272.617188 260.066406 272.617188 " fill-opacity="1" fill-rule="nonzero"></path><path fill="#040606" d="M 157.003906 284.765625 L 187.316406 284.765625 C 190.652344 284.765625 193.378906 282.035156 193.378906 278.691406 C 193.378906 275.34375 190.652344 272.617188 187.316406 272.617188 L 157.003906 272.617188 C 153.664062 272.617188 150.941406 275.34375 150.941406 278.691406 C 150.941406 282.035156 153.664062 284.765625 157.003906 284.765625 " fill-opacity="1" fill-rule="nonzero"></path><path fill="#040606" d="M 132.753906 296.914062 L 126.691406 296.914062 C 123.351562 296.914062 120.628906 299.644531 120.628906 302.988281 C 120.628906 306.335938 123.351562 309.066406 126.691406 309.066406 L 132.753906 309.066406 C 136.089844 309.066406 138.816406 306.335938 138.816406 302.988281 C 138.816406 299.644531 136.089844 296.914062 132.753906 296.914062 " fill-opacity="1" fill-rule="nonzero"></path><path fill="#040606" d="M 260.066406 296.914062 L 211.566406 296.914062 C 208.226562 296.914062 205.503906 299.644531 205.503906 302.988281 C 205.503906 306.335938 208.226562 309.066406 211.566406 309.066406 L 260.066406 309.066406 C 263.402344 309.066406 266.128906 306.335938 266.128906 302.988281 C 266.128906 299.644531 263.402344 296.914062 260.066406 296.914062 " fill-opacity="1" fill-rule="nonzero"></path><path fill="#040606" d="M 157.003906 309.066406 L 187.316406 309.066406 C 190.652344 309.066406 193.378906 306.335938 193.378906 302.988281 C 193.378906 299.644531 190.652344 296.914062 187.316406 296.914062 L 157.003906 296.914062 C 153.664062 296.914062 150.941406 299.644531 150.941406 302.988281 C 150.941406 306.335938 153.664062 309.066406 157.003906 309.066406 " fill-opacity="1" fill-rule="nonzero"></path></svg>