<svg xmlns="http://www.w3.org/2000/svg" xmlns:xlink="http://www.w3.org/1999/xlink" width="500" viewBox="0 0 375 374.999991" height="500" preserveAspectRatio="xMidYMid meet"><defs><clipPath id="a3466400c7"><path d="M 7.515625 7.515625 L 367.515625 7.515625 L 367.515625 367.515625 L 7.515625 367.515625 Z M 7.515625 7.515625 " clip-rule="nonzero"></path></clipPath></defs><rect x="-37.5" width="450" fill="#ffffff" y="-37.499999" height="449.999989" fill-opacity="1"></rect><rect x="-37.5" width="450" fill="#ffffff" y="-37.499999" height="449.999989" fill-opacity="1"></rect><path fill="#000000" d="M 210.742188 112.035156 C 213.941406 112.035156 216.550781 109.425781 216.550781 106.226562 C 216.550781 103.027344 213.941406 100.421875 210.742188 100.421875 C 207.546875 100.421875 204.9375 103.027344 204.9375 106.226562 C 204.9375 109.425781 207.546875 112.035156 210.742188 112.035156 " fill-opacity="1" fill-rule="nonzero"></path><path fill="#000000" d="M 257.195312 112.035156 C 260.394531 112.035156 263 109.425781 263 106.226562 C 263 103.027344 260.394531 100.421875 257.195312 100.421875 C 253.996094 100.421875 251.386719 103.027344 251.386719 106.226562 C 251.386719 109.425781 253.996094 112.035156 257.195312 112.035156 " fill-opacity="1" fill-rule="nonzero"></path><g clip-path="url(#a3466400c7)"><path fill="#000000" d="M 355.90625 286.226562 C 355.90625 292.625 350.6875 297.839844 344.292969 297.839844 L 344.292969 286.226562 L 332.679688 286.226562 L 332.679688 297.839844 L 321.066406 297.839844 L 321.066406 286.226562 L 309.453125 286.226562 L 309.453125 297.839844 L 297.839844 297.839844 L 297.839844 286.226562 L 286.226562 286.226562 L 286.226562 297.839844 L 146.871094 297.839844 C 146.871094 289.675781 145.398438 281.894531 142.8125 274.613281 L 332.679688 274.613281 C 339.074219 274.613281 344.292969 269.398438 344.292969 263 L 344.292969 146.871094 C 344.292969 140.476562 339.074219 135.257812 332.679688 135.257812 L 297.839844 135.257812 C 306.390625 135.257812 313.808594 130.5625 317.84375 123.644531 L 344.292969 123.644531 C 350.6875 123.644531 355.90625 128.863281 355.90625 135.257812 Z M 263 332.679688 L 204.9375 332.679688 L 204.9375 309.453125 L 263 309.453125 Z M 286.226562 355.90625 L 181.710938 355.90625 L 181.710938 344.292969 L 286.226562 344.292969 Z M 88.355469 354.816406 L 101.917969 333.109375 C 104.300781 329.300781 106.113281 325.238281 107.679688 321.066406 L 130.382812 321.066406 C 122.828125 338.257812 107.226562 351.117188 88.355469 354.816406 Z M 24.007812 321.066406 L 46.710938 321.066406 C 48.277344 325.238281 50.089844 329.300781 52.472656 333.109375 L 66.035156 354.816406 C 47.164062 351.117188 31.535156 338.257812 24.007812 321.066406 Z M 66.035156 240.886719 L 52.472656 262.570312 C 50.089844 266.378906 48.277344 270.441406 46.710938 274.613281 L 24.007812 274.613281 C 31.535156 257.421875 47.164062 244.5625 66.035156 240.886719 Z M 112.035156 135.257812 C 112.035156 128.863281 117.25 123.644531 123.644531 123.644531 L 150.09375 123.644531 C 154.128906 130.5625 161.546875 135.257812 170.097656 135.257812 L 135.257812 135.257812 C 128.863281 135.257812 123.644531 140.476562 123.644531 146.871094 L 123.644531 246.058594 C 120.085938 242.859375 116.207031 240.003906 112.035156 237.597656 Z M 170.097656 100.421875 L 181.710938 100.421875 L 181.710938 123.644531 L 170.097656 123.644531 C 163.703125 123.644531 158.484375 118.429688 158.484375 112.035156 C 158.484375 105.636719 163.703125 100.421875 170.097656 100.421875 Z M 170.097656 83 C 170.097656 47.777344 198.746094 19.128906 233.96875 19.128906 C 269.191406 19.128906 297.839844 47.777344 297.839844 83 L 297.839844 88.808594 L 286.226562 88.808594 L 286.226562 83 C 286.226562 54.195312 262.796875 30.742188 233.96875 30.742188 C 205.140625 30.742188 181.710938 54.195312 181.710938 83 L 181.710938 88.808594 L 170.097656 88.808594 Z M 286.226562 123.644531 L 286.226562 100.421875 L 297.839844 100.421875 C 304.234375 100.421875 309.453125 105.636719 309.453125 112.035156 C 309.453125 118.429688 304.234375 123.644531 297.839844 123.644531 Z M 332.679688 228.164062 L 296.410156 228.164062 C 297.339844 225.125 297.839844 221.925781 297.839844 218.589844 C 297.839844 209.425781 294.007812 200.988281 287.703125 194.933594 C 294.164062 186.972656 297.839844 176.96875 297.839844 166.582031 L 297.839844 146.871094 L 332.679688 146.871094 Z M 135.257812 259.417969 L 135.257812 239.773438 L 177.898438 239.773438 C 183.933594 246.875 192.894531 251.386719 202.894531 251.386719 L 222.355469 251.386719 C 226.847656 251.386719 230.882812 249.640625 233.96875 246.851562 C 237.054688 249.640625 241.089844 251.386719 245.582031 251.386719 L 265.042969 251.386719 C 275.046875 251.386719 284.003906 246.875 290.039062 239.773438 L 332.679688 239.773438 L 332.679688 263 L 137.460938 263 C 136.757812 261.800781 136.03125 260.574219 135.257812 259.417969 Z M 92.074219 268.71875 C 93.253906 270.621094 94.273438 272.59375 95.203125 274.613281 L 59.1875 274.613281 C 60.136719 272.59375 61.136719 270.621094 62.316406 268.71875 L 77.195312 244.925781 Z M 130.382812 274.613281 L 107.679688 274.613281 C 106.113281 270.441406 104.300781 266.378906 101.917969 262.570312 L 88.355469 240.886719 C 107.226562 244.5625 122.828125 257.421875 130.382812 274.613281 Z M 180.257812 194.933594 C 173.929688 200.988281 170.097656 209.425781 170.097656 218.589844 C 170.097656 221.925781 170.597656 225.125 171.527344 228.164062 L 135.257812 228.164062 L 135.257812 146.871094 L 170.097656 146.871094 L 170.097656 166.582031 C 170.097656 176.96875 173.773438 186.972656 180.257812 194.933594 Z M 208.746094 175.179688 L 206.160156 182.9375 L 192.53125 187.472656 C 191.644531 187.765625 190.851562 188.175781 189.988281 188.539062 C 184.703125 182.503906 181.710938 174.679688 181.710938 166.582031 L 181.710938 135.257812 L 182.050781 135.257812 C 183.980469 152.453125 194.253906 167.148438 208.746094 175.179688 Z M 277.949219 188.539062 C 277.109375 188.175781 276.292969 187.765625 275.40625 187.472656 L 261.777344 182.9375 L 259.191406 175.179688 C 273.683594 167.148438 283.957031 152.453125 285.886719 135.257812 L 286.226562 135.257812 L 286.226562 166.582031 C 286.226562 174.703125 283.234375 182.503906 277.949219 188.539062 Z M 233.96875 181.710938 C 238.980469 181.710938 243.835938 180.960938 248.441406 179.625 L 250.796875 186.65625 L 247.941406 190.917969 C 244.355469 196.316406 239.546875 200.855469 233.96875 204.144531 C 228.390625 200.855469 223.582031 196.316406 219.996094 190.917969 L 217.140625 186.65625 L 219.5 179.625 C 224.101562 180.960938 228.957031 181.710938 233.96875 181.710938 Z M 225.167969 140 L 223.988281 135.257812 L 243.949219 135.257812 L 242.769531 140 C 241.75 144.058594 238.140625 146.871094 233.96875 146.871094 C 229.796875 146.871094 226.1875 144.058594 225.167969 140 Z M 228.164062 164.292969 C 228.164062 161.09375 230.769531 158.484375 233.96875 158.484375 C 237.167969 158.484375 239.773438 161.09375 239.773438 164.292969 C 239.773438 167.488281 237.167969 170.097656 233.96875 170.097656 C 230.769531 170.097656 228.164062 167.488281 228.164062 164.292969 Z M 216.550781 228.164062 L 222.355469 228.164062 C 225.554688 228.164062 228.164062 230.769531 228.164062 233.96875 C 228.164062 237.167969 225.554688 239.773438 222.355469 239.773438 L 216.550781 239.773438 Z M 263 228.390625 C 265.8125 228.886719 268.445312 230.203125 270.507812 232.269531 L 278.71875 224.058594 C 273.867188 219.226562 267.445312 216.550781 260.597656 216.550781 L 245.582031 216.550781 C 241.089844 216.550781 237.054688 218.296875 233.96875 221.085938 C 230.882812 218.296875 226.847656 216.550781 222.355469 216.550781 L 207.339844 216.550781 C 200.492188 216.550781 194.070312 219.226562 189.21875 224.058594 L 197.429688 232.269531 C 199.492188 230.203125 202.125 228.886719 204.9375 228.390625 L 204.9375 239.773438 L 202.894531 239.773438 C 191.214844 239.773438 181.710938 230.273438 181.710938 218.589844 C 181.710938 209.449219 187.539062 201.375 196.203125 198.496094 L 208.382812 194.433594 L 210.3125 197.359375 C 215.597656 205.253906 222.878906 211.671875 231.359375 215.9375 L 233.96875 217.230469 L 236.578125 215.9375 C 245.058594 211.671875 252.339844 205.253906 257.625 197.359375 L 259.554688 194.433594 L 271.734375 198.496094 C 280.398438 201.375 286.226562 209.449219 286.226562 218.589844 C 286.226562 230.273438 276.722656 239.773438 265.042969 239.773438 L 263 239.773438 Z M 251.386719 239.773438 L 245.582031 239.773438 C 242.382812 239.773438 239.773438 237.167969 239.773438 233.96875 C 239.773438 230.769531 242.382812 228.164062 245.582031 228.164062 L 251.386719 228.164062 Z M 193.324219 97.402344 L 216.253906 79.054688 C 227.867188 89.171875 242.382812 95.703125 257.695312 97.628906 L 274.613281 99.738281 L 274.613281 129.453125 C 274.613281 145.691406 264.996094 159.710938 251.207031 166.21875 C 251.253906 165.5625 251.386719 164.949219 251.386719 164.292969 C 251.386719 160.164062 249.867188 156.398438 247.464844 153.40625 C 250.59375 150.707031 252.976562 147.078125 254.042969 142.8125 L 258.828125 123.644531 L 209.109375 123.644531 L 213.894531 142.8125 C 214.960938 147.078125 217.34375 150.707031 220.472656 153.40625 C 218.070312 156.398438 216.550781 160.164062 216.550781 164.292969 C 216.550781 164.949219 216.6875 165.5625 216.730469 166.21875 C 202.941406 159.710938 193.324219 145.691406 193.324219 129.453125 Z M 274.613281 88.035156 L 259.144531 86.109375 C 244.652344 84.292969 230.976562 77.601562 220.65625 67.28125 L 216.980469 63.609375 L 193.347656 82.503906 C 193.617188 60.320312 211.71875 42.355469 233.96875 42.355469 C 256.378906 42.355469 274.613281 60.59375 274.613281 83 Z M 19.128906 297.839844 C 19.128906 293.871094 19.539062 289.992188 20.285156 286.226562 L 43.511719 286.226562 C 42.832031 290.058594 42.355469 293.914062 42.355469 297.839844 C 42.355469 301.765625 42.832031 305.621094 43.511719 309.453125 L 20.285156 309.453125 C 19.539062 305.6875 19.128906 301.808594 19.128906 297.839844 Z M 95.203125 321.066406 C 94.273438 323.085938 93.253906 325.058594 92.074219 326.960938 L 77.195312 350.753906 L 62.316406 326.960938 C 61.136719 325.058594 60.136719 323.085938 59.1875 321.066406 Z M 55.351562 309.453125 C 54.511719 305.640625 53.96875 301.765625 53.96875 297.839844 C 53.96875 293.914062 54.511719 290.039062 55.351562 286.226562 L 99.058594 286.226562 C 99.875 290.039062 100.421875 293.914062 100.421875 297.839844 C 100.421875 301.765625 99.875 305.640625 99.058594 309.453125 Z M 135.257812 297.839844 C 135.257812 301.808594 134.851562 305.6875 134.078125 309.453125 L 110.875 309.453125 C 111.558594 305.621094 112.035156 301.765625 112.035156 297.839844 C 112.035156 293.914062 111.558594 290.058594 110.875 286.226562 L 134.078125 286.226562 C 134.851562 289.992188 135.257812 293.871094 135.257812 297.839844 Z M 344.292969 112.035156 L 321.066406 112.035156 C 321.066406 103.484375 316.371094 96.066406 309.453125 92.027344 L 309.453125 83 C 309.453125 41.378906 275.589844 7.515625 233.96875 7.515625 C 192.347656 7.515625 158.484375 41.378906 158.484375 83 L 158.484375 92.027344 C 151.566406 96.066406 146.871094 103.484375 146.871094 112.035156 L 123.644531 112.035156 C 110.832031 112.035156 100.421875 122.445312 100.421875 135.257812 L 100.421875 232.222656 C 93.140625 229.636719 85.359375 228.164062 77.195312 228.164062 C 38.773438 228.164062 7.515625 259.417969 7.515625 297.839844 C 7.515625 336.261719 38.773438 367.515625 77.195312 367.515625 C 111.648438 367.515625 140.273438 342.363281 145.828125 309.453125 L 193.324219 309.453125 L 193.324219 332.679688 L 181.710938 332.679688 C 175.316406 332.679688 170.097656 337.894531 170.097656 344.292969 L 170.097656 355.90625 C 170.097656 362.300781 175.316406 367.515625 181.710938 367.515625 L 286.226562 367.515625 C 292.625 367.515625 297.839844 362.300781 297.839844 355.90625 L 297.839844 344.292969 C 297.839844 337.894531 292.625 332.679688 286.226562 332.679688 L 274.613281 332.679688 L 274.613281 309.453125 L 344.292969 309.453125 C 357.105469 309.453125 367.515625 299.042969 367.515625 286.226562 L 367.515625 135.257812 C 367.515625 122.445312 357.105469 112.035156 344.292969 112.035156 " fill-opacity="1" fill-rule="nonzero"></path></g><path fill="#000000" d="M 65.582031 53.96875 L 53.96875 53.96875 L 53.96875 65.582031 L 65.582031 65.582031 L 65.582031 53.96875 " fill-opacity="1" fill-rule="nonzero"></path><path fill="#000000" d="M 88.808594 53.96875 L 77.195312 53.96875 L 77.195312 65.582031 L 88.808594 65.582031 L 88.808594 53.96875 " fill-opacity="1" fill-rule="nonzero"></path><path fill="#000000" d="M 112.035156 53.96875 L 100.421875 53.96875 L 100.421875 65.582031 L 112.035156 65.582031 L 112.035156 53.96875 " fill-opacity="1" fill-rule="nonzero"></path><path fill="#000000" d="M 30.742188 42.355469 C 30.742188 35.960938 35.960938 30.742188 42.355469 30.742188 L 123.644531 30.742188 C 130.042969 30.742188 135.257812 35.960938 135.257812 42.355469 L 135.257812 77.195312 C 135.257812 83.589844 130.042969 88.808594 123.644531 88.808594 L 90.078125 88.808594 L 84.589844 110.785156 C 84.226562 112.261719 81.777344 112.261719 81.414062 110.785156 L 75.925781 88.808594 L 42.355469 88.808594 C 35.960938 88.808594 30.742188 83.589844 30.742188 77.195312 Z M 42.355469 100.421875 L 66.851562 100.421875 L 70.164062 113.621094 C 71.636719 119.519531 76.921875 123.644531 83 123.644531 C 89.078125 123.644531 94.363281 119.519531 95.839844 113.621094 L 99.148438 100.421875 L 123.644531 100.421875 C 136.460938 100.421875 146.871094 90.007812 146.871094 77.195312 L 146.871094 42.355469 C 146.871094 29.539062 136.460938 19.128906 123.644531 19.128906 L 42.355469 19.128906 C 29.539062 19.128906 19.128906 29.539062 19.128906 42.355469 L 19.128906 77.195312 C 19.128906 90.007812 29.539062 100.421875 42.355469 100.421875 " fill-opacity="1" fill-rule="nonzero"></path></svg>