<svg xmlns="http://www.w3.org/2000/svg" width="500" viewBox="0 0 375 375" height="500"><defs><clipPath id="a"><path d="M6.832 6.832h361.5v361.5H6.832Zm0 0"></path></clipPath></defs><path fill="#fff" d="M-37.5-37.5h450v450h-450z"></path><path fill="#fff" d="M-37.5-37.5h450v450h-450z"></path><g clip-path="url(#a)"><path fill="#100f0d" d="m179.555 19.117 48.25 47.399-36.809 36.832a54.845 54.845 0 0 0-3.414-.118c-2.613 0-5.227.141-7.789.38-.848.093-1.695.234-2.543.328-1.695.21-3.39.449-5.059.753-.988.188-1.957.422-2.945.66-1.48.329-2.988.68-4.445 1.083-1.012.304-2 .632-3.012.964-1.39.446-2.777.918-4.121 1.434-1.012.379-2 .8-2.988 1.227-1.317.539-2.614 1.152-3.883 1.761-.965.496-1.93.965-2.871 1.485-1.25.66-2.473 1.386-3.696 2.117-.917.543-1.812 1.105-2.707 1.672-1.199.8-2.378 1.648-3.554 2.52-.824.609-1.649 1.175-2.469 1.835a97.128 97.128 0 0 0-3.484 2.942c-.707.632-1.438 1.222-2.118 1.882-1.296 1.223-2.543 2.516-3.789 3.836-.449.493-.941.942-1.367 1.434a90.14 90.14 0 0 0-4.683 5.695c-.399.567-.778 1.18-1.176 1.742-1.035 1.438-2.047 2.895-2.988 4.403-.497.824-.942 1.672-1.438 2.52a71.222 71.222 0 0 0-2.187 4 58.669 58.669 0 0 0-1.317 2.847 73.147 73.147 0 0 0-1.742 4c-.402 1.012-.754 2.047-1.133 3.082a75.98 75.98 0 0 0-1.316 4.098 50.219 50.219 0 0 0-.871 3.222c-.164.66-.399 1.32-.54 1.977l-34.597-34.594a6.009 6.009 0 0 0-4.262-1.765h-.023a6.01 6.01 0 0 0-4.281 1.812l-43.07 43.82C23.683 91.934 92.312 23.188 179.554 19.117Zm176.492 160.438-47.426 48.25-36.808-36.809c.07-1.133.117-2.262.117-3.414 0-2.613-.14-5.227-.375-7.789-.094-.848-.235-1.695-.328-2.52a87.836 87.836 0 0 0-.754-5.082c-.188-.992-.426-1.957-.66-2.921a84.747 84.747 0 0 0-1.083-4.47c-.304-1.01-.636-2-.94-3.015a126.687 126.687 0 0 0-1.458-4.14c-.379-.989-.8-1.977-1.227-2.965a78.507 78.507 0 0 0-1.765-3.883c-.492-.965-.965-1.93-1.48-2.871-.66-1.25-1.391-2.496-2.118-3.719-.566-.894-1.11-1.789-1.672-2.684-.8-1.199-1.648-2.378-2.52-3.554-.613-.824-1.175-1.672-1.812-2.446-.965-1.226-1.976-2.355-2.988-3.507-.613-.707-1.2-1.438-1.836-2.118-1.27-1.32-2.59-2.59-3.93-3.859-.472-.426-.894-.871-1.367-1.297a84.35 84.35 0 0 0-5.719-4.683c-.515-.399-1.082-.73-1.62-1.13-1.485-1.034-2.97-2.07-4.52-3.034-.778-.497-1.602-.918-2.426-1.391-1.34-.777-2.684-1.55-4.07-2.234-.918-.473-1.86-.872-2.801-1.293a60.639 60.639 0 0 0-4.07-1.766c-.989-.402-2-.754-3.016-1.11a71.973 71.973 0 0 0-4.188-1.363 68.196 68.196 0 0 0-3.128-.847c-.684-.164-1.344-.375-2.024-.54l34.594-34.597a6.08 6.08 0 0 0 1.766-4.285c0-1.598-.66-3.153-1.813-4.258l-43.82-43.094c86.465 4.543 155.215 73.195 159.285 160.438ZM195.605 356.047l-48.246-47.402 36.809-36.832c1.129.07 2.262.117 3.414.117 2.613 0 5.223-.14 7.79-.375.847-.094 1.694-.235 2.542-.328 1.695-.211 3.387-.45 5.059-.754.988-.188 1.953-.426 2.941-.66a88.955 88.955 0 0 0 4.45-1.083c1.011-.304 2-.636 3.011-.964a77.587 77.587 0 0 0 4.121-1.434c1.012-.379 2-.8 2.988-1.227 1.317-.539 2.614-1.152 3.883-1.765.965-.492 1.93-.965 2.871-1.48 1.246-.66 2.473-1.391 3.696-2.118.918-.543 1.812-1.11 2.707-1.672 1.199-.8 2.375-1.648 3.554-2.52.82-.613 1.645-1.175 2.47-1.835 1.175-.942 2.331-1.93 3.483-2.942.707-.636 1.434-1.222 2.118-1.882 1.297-1.223 2.543-2.52 3.789-3.836.449-.496.941-.942 1.367-1.438a91.512 91.512 0 0 0 4.683-5.695c.399-.563.774-1.176 1.176-1.738a82.179 82.179 0 0 0 2.989-4.403c.496-.824.94-1.672 1.437-2.52a75.324 75.324 0 0 0 2.188-4 62.64 62.64 0 0 0 1.316-2.847 74.486 74.486 0 0 0 1.742-4c.402-1.012.754-2.05 1.129-3.086.473-1.34.918-2.707 1.32-4.094.328-1.058.61-2.14.871-3.222.164-.66.399-1.32.54-1.98l34.597 34.597a6.025 6.025 0 0 0 4.262 1.766h.023c1.598 0 3.153-.66 4.282-1.813l43.07-43.82c-4.567 86.465-73.195 155.215-160.442 159.285Zm-8.023-240.766c1.578 0 3.106.117 4.66.235.235 0 .399.023.637.023 37.559 2.73 67.004 34.387 67.004 72.043 0 1.531-.117 3.012-.215 4.496-.023.281-.047.516-.07.8-2.727 37.56-34.36 67.005-72.016 67.005-1.578 0-3.105-.117-4.66-.238-.234 0-.399-.024-.637-.024-37.562-2.726-67.004-34.383-67.004-72.039 0-1.531.117-3.012.211-4.496.024-.281.047-.516.07-.8 2.731-37.563 34.364-67.005 72.02-67.005ZM19.117 195.605 66.54 147.36l36.809 36.809a54.741 54.741 0 0 0-.118 3.414c0 2.613.141 5.223.38 7.79.093.847.234 1.694.328 2.519.21 1.718.449 3.41.753 5.082.188.988.422 1.953.66 2.918.329 1.507.68 3.015 1.083 4.472.304 1.012.632 2 .964 3.012.446 1.39.918 2.777 1.434 4.145.379.988.8 1.976 1.227 2.964a115.725 115.725 0 0 0 1.761 3.883c.496.965.965 1.93 1.485 2.871a83.972 83.972 0 0 0 2.117 3.719c.566.895 1.105 1.79 1.672 2.684.8 1.199 1.648 2.375 2.52 3.554.609.82 1.175 1.668 1.812 2.446.965 1.222 1.976 2.355 2.988 3.507.61.707 1.2 1.434 1.836 2.118 1.27 1.32 2.59 2.59 3.93 3.859.468.426.894.871 1.363 1.297a85.546 85.546 0 0 0 5.719 4.683c.52.399 1.11.75 1.648 1.13a75.386 75.386 0 0 0 4.496 3.035c.778.496 1.602.918 2.426 1.39 1.34.774 2.703 1.55 4.094 2.235.894.468 1.836.87 2.777 1.293a60.639 60.639 0 0 0 4.07 1.765c.989.402 2 .754 3.012 1.106 1.367.496 2.754.941 4.192 1.367 1.035.304 2.07.586 3.128.847.684.164 1.344.375 2.024.54l-34.594 34.597a6.063 6.063 0 0 0-1.765 4.285c0 1.598.656 3.153 1.812 4.258l43.82 43.094c-86.468-4.543-155.214-73.195-159.285-160.442Zm-12.144-2.164c3.129 98.07 82.468 174.891 180.609 174.891 1.555 0 3.082-.047 4.613-.117l1.2-.024h.046c98.07-3.132 174.891-82.468 174.891-180.609 0-1.602-.047-3.176-.117-4.73l-.024-1.13C365.06 83.649 285.723 6.833 187.582 6.833c-1.555 0-3.082.047-4.613.117l-1.246.024C83.653 10.102 6.832 89.44 6.832 187.582c0 1.602.047 3.176.117 4.73l.024 1.13"></path></g><path fill="#100f0d" d="M127.332 163.48v48.2c0 3.32 2.707 6.027 6.023 6.027h24.102c3.316 0 6.023-2.707 6.023-6.027v-18.075h-12.046v12.051h-12.051v-36.148h12.05v6.023h12.047v-12.05c0-3.317-2.707-6.024-6.023-6.024h-24.102c-3.316 0-6.023 2.707-6.023 6.023M181.559 169.508h12.046v12.047H181.56Zm0 24.097h7.105l5.059 25.278 11.816-2.352-4.613-23.066a6.027 6.027 0 0 0 4.73-5.883V163.48c0-3.316-2.707-6.023-6.023-6.023H175.53c-3.316 0-6.023 2.707-6.023 6.023v54.227h12.05v-24.102M223.73 183.367l1.012 1.531c2.238 3.344 7.793 3.344 10.028 0l1.011-1.53v34.339h12.051V163.48a6.03 6.03 0 0 0-4.285-5.765c-2.516-.778-5.27.21-6.754 2.426l-7.035 10.566-7.04-10.566a6.002 6.002 0 0 0-6.753-2.426 6.026 6.026 0 0 0-4.281 5.765v54.227h12.046v-34.34M290.008 97.207c9.976 0 18.074 8.094 18.074 18.074 0 9.98-8.098 18.074-18.074 18.074-9.98 0-18.078-8.093-18.078-18.074 0-9.98 8.097-18.074 18.078-18.074Zm0 48.2c16.613 0 30.125-13.509 30.125-30.126s-13.512-30.125-30.125-30.125c-16.617 0-30.125 13.508-30.125 30.125s13.508 30.125 30.125 30.125M223.73 283.98h66.278v-12.05H223.73v12.05M223.73 308.082h54.227v-12.05H223.73v12.05M223.73 332.18h30.125v-12.047H223.73v12.047"></path><path fill="#100f0d" d="M296.031 103.23h-12.05v24.102h12.05V103.23M73.105 265.906c-13.296 0-24.097-10.8-24.097-24.101 0-13.297 10.8-24.098 24.097-24.098s24.102 10.8 24.102 24.098c0 13.3-10.805 24.101-24.102 24.101Zm0-60.25c-19.933 0-36.148 16.215-36.148 36.149 0 19.937 16.215 36.152 36.148 36.152 19.934 0 36.153-16.215 36.153-36.152 0-19.934-16.219-36.149-36.153-36.149"></path><path fill="#100f0d" d="m72.473 227.05-10.782 5.415 6.028 12.047a6.115 6.115 0 0 0 2.68 2.683l12.05 6.028 5.414-10.782-10.261-5.129-5.13-10.261M73.105 109.258V91.18H61.06v18.078h12.046M97.207 73.105h-12.05v36.153h12.05V73.105M121.309 55.031h-12.051v54.227h12.05V55.03M145.406 42.98h-12.05v66.278h12.05V42.98"></path></svg>