<svg xmlns="http://www.w3.org/2000/svg" xmlns:xlink="http://www.w3.org/1999/xlink" width="500" viewBox="0 0 375 374.999991" height="500" preserveAspectRatio="xMidYMid meet"><defs><clipPath id="780e880f83"><path d="M 12.4375 12.4375 L 362.6875 12.4375 L 362.6875 362.6875 L 12.4375 362.6875 Z M 12.4375 12.4375 " clip-rule="nonzero"></path></clipPath></defs><rect x="-37.5" width="450" fill="#ffffff" y="-37.499999" height="449.999989" fill-opacity="1"></rect><rect x="-37.5" width="450" fill="#ffffff" y="-37.499999" height="449.999989" fill-opacity="1"></rect><g clip-path="url(#780e880f83)"><path fill="#000000" d="M 324.96875 12.4375 L 50.15625 12.4375 C 29.355469 12.4375 12.4375 29.355469 12.4375 50.15625 L 12.4375 270.027344 C 12.4375 290.828125 29.355469 307.746094 50.15625 307.746094 L 153.222656 307.746094 L 153.222656 321.480469 L 146.355469 321.480469 C 127.421875 321.480469 112.019531 336.886719 112.019531 355.820312 C 112.019531 359.613281 115.09375 362.6875 118.886719 362.6875 L 256.238281 362.6875 C 260.03125 362.6875 263.105469 359.613281 263.105469 355.820312 C 263.105469 336.886719 247.703125 321.480469 228.769531 321.480469 L 221.902344 321.480469 L 221.902344 307.746094 L 324.96875 307.746094 C 345.769531 307.746094 362.6875 290.828125 362.6875 270.027344 L 362.6875 50.15625 C 362.6875 29.355469 345.769531 12.4375 324.96875 12.4375 Z M 50.15625 26.171875 L 324.96875 26.171875 C 338.195312 26.171875 348.953125 36.929688 348.953125 50.15625 L 348.953125 239.070312 L 26.171875 239.070312 L 26.171875 50.15625 C 26.171875 36.929688 36.929688 26.171875 50.15625 26.171875 Z M 248.195312 348.953125 L 126.929688 348.953125 C 129.765625 340.957031 137.402344 335.21875 146.355469 335.21875 L 228.769531 335.21875 C 237.722656 335.21875 245.359375 340.957031 248.195312 348.953125 Z M 208.164062 321.480469 L 166.960938 321.480469 L 166.960938 307.746094 L 208.164062 307.746094 Z M 324.96875 294.011719 L 50.15625 294.011719 C 36.929688 294.011719 26.171875 283.253906 26.171875 270.027344 L 26.171875 252.804688 L 348.953125 252.804688 L 348.953125 270.027344 C 348.953125 283.253906 338.195312 294.011719 324.96875 294.011719 Z M 324.96875 294.011719 " fill-opacity="1" fill-rule="nonzero"></path></g><path fill="#000000" d="M 112.019531 122.320312 C 124.421875 122.320312 134.132812 111.351562 132.425781 98.902344 L 153.59375 76.171875 C 160.195312 81.8125 169.367188 82.59375 176.660156 78.679688 L 201.441406 99.328125 C 200.007812 111.660156 209.6875 122.320312 221.902344 122.320312 C 233.261719 122.320312 242.503906 113.078125 242.503906 101.71875 L 265.457031 91.40625 C 268.722656 93.578125 272.636719 94.847656 276.84375 94.847656 C 288.203125 94.847656 297.445312 85.605469 297.445312 74.246094 C 297.445312 62.886719 288.203125 53.644531 276.84375 53.644531 C 263.148438 53.644531 253.15625 66.871094 257.09375 80.105469 L 237.886719 88.738281 C 230.335938 79.460938 216.535156 78.480469 207.78125 86.734375 L 185.9375 68.53125 C 191.6875 54.972656 181.65625 39.90625 166.960938 39.90625 C 154.464844 39.90625 144.726562 51.035156 146.582031 63.546875 L 125.511719 86.167969 C 121.894531 83.023438 117.175781 81.113281 112.019531 81.113281 C 100.65625 81.113281 91.414062 90.355469 91.414062 101.71875 C 91.414062 113.078125 100.65625 122.320312 112.019531 122.320312 Z M 276.84375 67.378906 C 280.628906 67.378906 283.710938 70.460938 283.710938 74.246094 C 283.710938 78.03125 280.628906 81.113281 276.84375 81.113281 C 273.054688 81.113281 269.972656 78.03125 269.972656 74.246094 C 269.972656 70.460938 273.054688 67.378906 276.84375 67.378906 Z M 221.902344 94.847656 C 225.6875 94.847656 228.769531 97.929688 228.769531 101.71875 C 228.769531 105.503906 225.6875 108.585938 221.902344 108.585938 C 218.113281 108.585938 215.03125 105.503906 215.03125 101.71875 C 215.03125 97.929688 218.113281 94.847656 221.902344 94.847656 Z M 166.960938 53.644531 C 170.746094 53.644531 173.828125 56.722656 173.828125 60.511719 C 173.828125 64.296875 170.746094 67.378906 166.960938 67.378906 C 163.171875 67.378906 160.09375 64.296875 160.09375 60.511719 C 160.09375 56.722656 163.171875 53.644531 166.960938 53.644531 Z M 112.019531 94.847656 C 115.804688 94.847656 118.886719 97.929688 118.886719 101.71875 C 118.886719 105.503906 115.804688 108.585938 112.019531 108.585938 C 108.230469 108.585938 105.152344 105.503906 105.152344 101.71875 C 105.152344 97.929688 108.230469 94.847656 112.019531 94.847656 Z M 112.019531 94.847656 " fill-opacity="1" fill-rule="nonzero"></path><path fill="#000000" d="M 70.8125 225.335938 C 72.945312 225.335938 298.777344 225.335938 304.3125 225.335938 C 308.105469 225.335938 311.179688 222.257812 311.179688 218.46875 C 311.179688 214.675781 308.105469 211.597656 304.3125 211.597656 L 297.445312 211.597656 L 297.445312 115.453125 C 297.445312 111.660156 294.371094 108.585938 290.578125 108.585938 L 263.105469 108.585938 C 259.3125 108.585938 256.238281 111.660156 256.238281 115.453125 L 256.238281 211.597656 L 242.503906 211.597656 L 242.503906 156.65625 C 242.503906 152.863281 239.429688 149.789062 235.636719 149.789062 L 208.164062 149.789062 C 204.375 149.789062 201.296875 152.863281 201.296875 156.65625 L 201.296875 211.597656 L 187.5625 211.597656 L 187.5625 115.453125 C 187.5625 111.660156 184.488281 108.585938 180.695312 108.585938 L 153.222656 108.585938 C 149.429688 108.585938 146.355469 111.660156 146.355469 115.453125 L 146.355469 211.597656 L 132.621094 211.597656 L 132.621094 149.789062 C 132.621094 145.996094 129.546875 142.921875 125.753906 142.921875 L 98.28125 142.921875 C 94.488281 142.921875 91.414062 145.996094 91.414062 149.789062 L 91.414062 211.597656 L 70.8125 211.597656 C 67.019531 211.597656 63.945312 214.675781 63.945312 218.46875 C 63.945312 222.257812 67.019531 225.335938 70.8125 225.335938 Z M 269.972656 122.320312 L 283.710938 122.320312 L 283.710938 211.597656 L 269.972656 211.597656 Z M 215.03125 163.527344 L 228.769531 163.527344 L 228.769531 211.597656 L 215.03125 211.597656 Z M 160.09375 122.320312 L 173.828125 122.320312 L 173.828125 211.597656 L 160.09375 211.597656 Z M 105.152344 156.65625 L 118.886719 156.65625 L 118.886719 211.597656 L 105.152344 211.597656 Z M 105.152344 156.65625 " fill-opacity="1" fill-rule="nonzero"></path><path fill="#000000" d="M 335.21875 273.40625 C 335.21875 273.859375 335.171875 274.304688 335.085938 274.746094 C 334.996094 275.191406 334.867188 275.621094 334.695312 276.035156 C 334.523438 276.453125 334.308594 276.847656 334.058594 277.222656 C 333.808594 277.597656 333.523438 277.945312 333.207031 278.265625 C 332.886719 278.582031 332.539062 278.867188 332.164062 279.117188 C 331.789062 279.367188 331.394531 279.582031 330.976562 279.753906 C 330.5625 279.925781 330.132812 280.054688 329.6875 280.144531 C 329.246094 280.230469 328.800781 280.277344 328.347656 280.277344 C 327.898438 280.277344 327.453125 280.230469 327.007812 280.144531 C 326.566406 280.054688 326.136719 279.925781 325.722656 279.753906 C 325.304688 279.582031 324.910156 279.367188 324.535156 279.117188 C 324.160156 278.867188 323.8125 278.582031 323.492188 278.265625 C 323.175781 277.945312 322.890625 277.597656 322.640625 277.222656 C 322.386719 276.847656 322.175781 276.453125 322.003906 276.035156 C 321.832031 275.621094 321.703125 275.191406 321.613281 274.746094 C 321.527344 274.304688 321.480469 273.859375 321.480469 273.40625 C 321.480469 272.957031 321.527344 272.511719 321.613281 272.066406 C 321.703125 271.625 321.832031 271.195312 322.003906 270.78125 C 322.175781 270.363281 322.386719 269.96875 322.640625 269.59375 C 322.890625 269.21875 323.175781 268.871094 323.492188 268.550781 C 323.8125 268.234375 324.160156 267.949219 324.535156 267.699219 C 324.910156 267.449219 325.304688 267.234375 325.722656 267.0625 C 326.136719 266.890625 326.566406 266.761719 327.007812 266.671875 C 327.453125 266.585938 327.898438 266.539062 328.347656 266.539062 C 328.800781 266.539062 329.246094 266.585938 329.6875 266.671875 C 330.132812 266.761719 330.5625 266.890625 330.976562 267.0625 C 331.394531 267.234375 331.789062 267.449219 332.164062 267.699219 C 332.539062 267.949219 332.886719 268.234375 333.207031 268.550781 C 333.523438 268.871094 333.808594 269.21875 334.058594 269.59375 C 334.308594 269.96875 334.523438 270.363281 334.695312 270.78125 C 334.867188 271.195312 334.996094 271.625 335.085938 272.066406 C 335.171875 272.511719 335.21875 272.957031 335.21875 273.40625 Z M 335.21875 273.40625 " fill-opacity="1" fill-rule="nonzero"></path><path fill="#000000" d="M 300.878906 266.539062 L 287.144531 266.539062 C 283.351562 266.539062 280.277344 269.617188 280.277344 273.40625 C 280.277344 277.199219 283.351562 280.277344 287.144531 280.277344 L 300.878906 280.277344 C 304.671875 280.277344 307.746094 277.199219 307.746094 273.40625 C 307.746094 269.617188 304.671875 266.539062 300.878906 266.539062 Z M 300.878906 266.539062 " fill-opacity="1" fill-rule="nonzero"></path><path fill="#000000" d="M 259.671875 266.539062 L 245.9375 266.539062 C 242.144531 266.539062 239.070312 269.617188 239.070312 273.40625 C 239.070312 277.199219 242.144531 280.277344 245.9375 280.277344 L 259.671875 280.277344 C 263.464844 280.277344 266.539062 277.199219 266.539062 273.40625 C 266.539062 269.617188 263.464844 266.539062 259.671875 266.539062 Z M 259.671875 266.539062 " fill-opacity="1" fill-rule="nonzero"></path></svg>