<svg xmlns="http://www.w3.org/2000/svg" xmlns:xlink="http://www.w3.org/1999/xlink" width="500" viewBox="0 0 375 374.999991" height="500" preserveAspectRatio="xMidYMid meet"><defs><clipPath id="6107d35543"><path d="M 35 7 L 339 7 L 339 369.742188 L 35 369.742188 Z M 35 7 " clip-rule="nonzero"></path></clipPath></defs><rect x="-37.5" width="450" fill="#ffffff" y="-37.499999" height="449.999989" fill-opacity="1"></rect><rect x="-37.5" width="450" fill="#ffffff" y="-37.499999" height="449.999989" fill-opacity="1"></rect><g clip-path="url(#6107d35543)"><path fill="#000000" d="M 327.414062 114.277344 C 324.96875 111.980469 322.777344 109.949219 320.8125 108.121094 C 304.84375 93.296875 304.84375 93.296875 300 72.046875 C 299.402344 69.429688 298.738281 66.515625 297.976562 63.25 C 294.253906 47.355469 280.816406 36.070312 264.53125 35.164062 C 261.183594 34.976562 258.199219 34.828125 255.523438 34.695312 C 233.769531 33.613281 233.769531 33.613281 216.40625 20.449219 C 214.269531 18.828125 211.890625 17.023438 209.207031 15.011719 C 196.148438 5.230469 178.601562 5.230469 165.546875 15.011719 C 162.863281 17.023438 160.480469 18.828125 158.347656 20.449219 C 140.984375 33.613281 140.984375 33.613281 119.230469 34.695312 C 116.550781 34.828125 113.570312 34.976562 110.222656 35.164062 C 93.9375 36.070312 80.496094 47.355469 76.777344 63.25 C 76.011719 66.515625 75.347656 69.429688 74.75 72.046875 C 69.90625 93.296875 69.90625 93.296875 53.9375 108.121094 C 51.972656 109.949219 49.785156 111.980469 47.339844 114.277344 C 35.445312 125.445312 32.398438 142.738281 39.757812 157.304688 C 41.269531 160.296875 42.632812 162.957031 43.855469 165.34375 C 53.792969 184.742188 53.792969 184.742188 51.085938 206.371094 C 50.75 209.035156 50.378906 211.996094 49.980469 215.328125 C 48.046875 231.535156 56.820312 246.742188 71.8125 253.167969 C 74.894531 254.488281 77.644531 255.648438 80.113281 256.691406 C 90.457031 261.054688 95.46875 263.171875 99.515625 266.703125 L 67.148438 336.273438 C 66.257812 338.1875 66.503906 340.433594 67.785156 342.105469 C 69.066406 343.777344 71.171875 344.597656 73.246094 344.238281 L 105.5 338.597656 L 121.949219 366.925781 C 122.964844 368.675781 124.828125 369.742188 126.835938 369.742188 C 126.921875 369.742188 127.007812 369.738281 127.09375 369.734375 C 129.199219 369.640625 131.074219 368.382812 131.964844 366.472656 L 160.457031 305.21875 C 162.664062 304.546875 164.691406 303.917969 166.5625 303.339844 C 187.375 296.914062 187.375 296.914062 208.1875 303.339844 C 210.324219 304 212.675781 304.726562 215.25 305.511719 L 243.609375 366.472656 C 244.5 368.382812 246.375 369.640625 248.480469 369.734375 C 248.566406 369.738281 248.652344 369.742188 248.738281 369.742188 C 250.742188 369.742188 252.609375 368.675781 253.625 366.925781 L 270.074219 338.597656 L 302.328125 344.238281 C 304.402344 344.597656 306.503906 343.777344 307.785156 342.105469 C 309.066406 340.433594 309.3125 338.1875 308.425781 336.273438 L 275.828125 266.203125 C 279.777344 262.960938 284.789062 260.84375 294.636719 256.691406 C 297.109375 255.648438 299.859375 254.488281 302.941406 253.167969 C 317.933594 246.742188 326.707031 231.535156 324.773438 215.328125 C 324.375 211.996094 324.003906 209.035156 323.667969 206.371094 C 320.957031 184.742188 320.957031 184.742188 330.898438 165.34375 C 332.117188 162.957031 333.480469 160.296875 334.996094 157.304688 C 342.351562 142.738281 339.304688 125.445312 327.414062 114.277344 Z M 126.285156 351.871094 L 113.296875 329.503906 C 112.105469 327.453125 109.765625 326.367188 107.433594 326.773438 L 81.96875 331.226562 L 107.441406 276.472656 C 108.773438 278.464844 110.257812 280.761719 112 283.46875 C 113.457031 285.722656 115.078125 288.234375 116.910156 291.042969 C 123.738281 301.492188 134.992188 307.453125 146.890625 307.570312 Z M 268.136719 326.773438 C 265.804688 326.367188 263.464844 327.453125 262.277344 329.503906 L 249.289062 351.871094 L 228.667969 307.542969 C 240.265625 307.167969 251.167969 301.253906 257.839844 291.042969 C 259.671875 288.234375 261.292969 285.722656 262.746094 283.46875 C 264.707031 280.429688 266.339844 277.90625 267.796875 275.75 L 293.601562 331.222656 Z M 324.902344 152.199219 C 323.402344 155.171875 322.050781 157.8125 320.835938 160.183594 C 309.625 182.054688 309.390625 183.390625 312.449219 207.78125 C 312.78125 210.421875 313.148438 213.367188 313.542969 216.671875 C 314.898438 228.023438 308.988281 238.265625 298.488281 242.765625 C 295.429688 244.078125 292.699219 245.230469 290.246094 246.261719 C 267.609375 255.808594 266.574219 256.679688 253.25 277.332031 C 251.804688 279.570312 250.199219 282.0625 248.375 284.847656 C 242.125 294.414062 231.019531 298.460938 220.085938 295.152344 C 216.898438 294.191406 214.066406 293.316406 211.523438 292.53125 C 199.789062 288.90625 193.582031 287.09375 187.375 287.09375 C 181.167969 287.09375 174.964844 288.90625 163.226562 292.53125 C 160.683594 293.316406 157.851562 294.191406 154.667969 295.152344 C 143.734375 298.460938 132.625 294.414062 126.375 284.847656 C 124.550781 282.058594 122.945312 279.566406 121.5 277.328125 C 108.175781 256.679688 107.140625 255.808594 84.503906 246.261719 C 82.050781 245.230469 79.320312 244.078125 76.261719 242.765625 C 65.761719 238.265625 59.851562 228.023438 61.207031 216.671875 C 61.601562 213.367188 61.972656 210.421875 62.304688 207.78125 C 65.359375 183.390625 65.125 182.054688 53.914062 160.183594 C 52.703125 157.8125 51.347656 155.171875 49.847656 152.199219 C 44.695312 141.996094 46.746094 130.351562 55.074219 122.527344 C 57.503906 120.246094 59.675781 118.230469 61.628906 116.417969 C 79.632812 99.703125 80.308594 98.527344 85.773438 74.5625 C 86.367188 71.964844 87.027344 69.074219 87.785156 65.832031 C 90.390625 54.699219 99.445312 47.097656 110.851562 46.460938 C 114.171875 46.277344 117.132812 46.128906 119.792969 45.996094 C 144.324219 44.773438 145.597656 44.3125 165.171875 29.464844 C 167.296875 27.859375 169.65625 26.066406 172.320312 24.070312 C 181.46875 17.21875 193.285156 17.21875 202.429688 24.070312 C 205.09375 26.066406 207.457031 27.859375 209.578125 29.464844 C 229.15625 44.3125 230.429688 44.773438 254.960938 45.996094 C 257.617188 46.128906 260.578125 46.277344 263.902344 46.460938 C 275.308594 47.097656 284.359375 54.699219 286.964844 65.832031 C 287.726562 69.074219 288.382812 71.964844 288.976562 74.5625 C 294.441406 98.527344 295.117188 99.703125 313.125 116.417969 C 315.074219 118.230469 317.25 120.246094 319.675781 122.527344 C 328.003906 130.351562 330.054688 141.996094 324.902344 152.199219 Z M 187.375 63.558594 C 135.550781 63.558594 93.386719 105.753906 93.386719 157.621094 C 93.386719 209.484375 135.550781 251.679688 187.375 251.679688 C 239.203125 251.679688 281.363281 209.484375 281.363281 157.621094 C 281.363281 105.753906 239.203125 63.558594 187.375 63.558594 Z M 132.039062 219.042969 C 136.300781 191.921875 159.613281 171.804688 187.375 171.804688 C 215.140625 171.804688 238.449219 191.921875 242.714844 219.042969 C 228.050781 232.289062 208.636719 240.363281 187.375 240.363281 C 166.113281 240.363281 146.703125 232.289062 132.039062 219.042969 Z M 187.375 160.488281 C 173.296875 160.488281 161.839844 149.023438 161.839844 134.933594 C 161.839844 120.84375 173.296875 109.378906 187.375 109.378906 C 201.457031 109.378906 212.910156 120.84375 212.910156 134.933594 C 212.910156 149.023438 201.457031 160.488281 187.375 160.488281 Z M 252.058594 209.097656 C 245.992188 187.96875 230.023438 171.371094 209.667969 164.261719 C 218.503906 157.519531 224.21875 146.882812 224.21875 134.933594 C 224.21875 114.601562 207.691406 98.0625 187.375 98.0625 C 167.0625 98.0625 150.535156 114.601562 150.535156 134.933594 C 150.535156 146.882812 156.25 157.519531 165.082031 164.261719 C 144.730469 171.371094 128.761719 187.96875 122.691406 209.097656 C 111.433594 194.957031 104.695312 177.0625 104.695312 157.621094 C 104.695312 111.996094 141.785156 74.875 187.375 74.875 C 232.964844 74.875 270.058594 111.996094 270.058594 157.621094 C 270.058594 177.0625 263.316406 194.957031 252.058594 209.097656 Z M 252.058594 209.097656 " fill-opacity="1" fill-rule="nonzero"></path></g></svg>