<svg xmlns="http://www.w3.org/2000/svg" xmlns:xlink="http://www.w3.org/1999/xlink" width="500" viewBox="0 0 375 374.999991" height="500" preserveAspectRatio="xMidYMid meet"><defs><clipPath id="ff1464eff8"><path d="M 14.59375 10 L 360.34375 10 L 360.34375 368.695312 L 14.59375 368.695312 Z M 14.59375 10 " clip-rule="nonzero"></path></clipPath></defs><rect x="-37.5" width="450" fill="#ffffff" y="-37.499999" height="449.999989" fill-opacity="1"></rect><rect x="-37.5" width="450" fill="#ffffff" y="-37.499999" height="449.999989" fill-opacity="1"></rect><g clip-path="url(#ff1464eff8)"><path fill="#000000" d="M 345.335938 40.121094 L 297.703125 40.121094 C 295.734375 29.433594 286.390625 21.28125 275.152344 21.28125 L 267.773438 21.28125 C 259.625 6.445312 236.859375 6.445312 228.640625 21.28125 L 221.261719 21.28125 C 210.023438 21.28125 200.605469 29.433594 198.710938 40.121094 L 151.074219 40.121094 C 142.996094 40.121094 136.390625 47.007812 136.390625 55.445312 L 136.390625 195.832031 C 132.035156 193.300781 107.023438 178.890625 102.105469 176.007812 C 100.351562 175.023438 98.242188 175.023438 96.484375 176.007812 L 17.585938 221.5625 C 15.832031 222.546875 14.777344 224.445312 14.777344 226.410156 L 14.777344 317.519531 C 14.777344 319.558594 15.832031 321.386719 17.585938 322.371094 L 96.414062 367.921875 C 97.257812 368.414062 98.242188 368.695312 99.226562 368.695312 C 100.210938 368.695312 101.191406 368.414062 102.035156 367.921875 L 140.46875 345.710938 C 143.136719 348.589844 146.929688 350.277344 151.003906 350.277344 L 345.335938 350.277344 C 353.488281 350.277344 360.089844 343.460938 360.089844 335.023438 L 360.089844 55.445312 C 360.160156 47.007812 353.488281 40.121094 345.335938 40.121094 Z M 221.261719 32.527344 L 232.222656 32.527344 C 234.613281 32.527344 236.71875 31.050781 237.492188 28.800781 C 239.179688 24.230469 243.394531 21.210938 248.242188 21.210938 C 253.089844 21.210938 257.304688 24.164062 258.992188 28.800781 C 259.835938 31.050781 261.941406 32.527344 264.261719 32.527344 L 275.21875 32.527344 C 281.683594 32.527344 286.882812 37.730469 286.882812 44.199219 L 286.882812 60.789062 L 209.601562 60.789062 C 209.601562 60.085938 209.601562 44.269531 209.601562 44.199219 C 209.601562 37.800781 214.871094 32.527344 221.261719 32.527344 Z M 329.460938 72.035156 L 329.460938 318.363281 L 183.675781 318.363281 C 183.886719 317.167969 183.675781 227.535156 183.746094 226.410156 C 183.746094 224.375 182.691406 222.546875 180.933594 221.5625 L 167.09375 213.546875 L 167.09375 72.035156 Z M 147.632812 55.445312 C 147.632812 53.195312 149.179688 51.367188 151.074219 51.367188 L 198.359375 51.367188 L 198.359375 60.789062 L 164.425781 60.789062 C 159.71875 60.789062 155.851562 64.722656 155.851562 69.574219 L 155.851562 207.078125 C 154.167969 206.09375 149.25 203.285156 147.632812 202.371094 Z M 131.402344 205.953125 C 116.859375 215.234375 81.449219 238.011719 67.328125 247.007812 L 62.972656 244.480469 L 127.046875 203.425781 Z M 99.296875 187.394531 L 116.15625 197.167969 L 52.082031 238.222656 L 31.707031 226.480469 Z M 62.058594 256.992188 L 62.058594 279.136719 L 57.5625 276.535156 L 57.5625 254.390625 Z M 93.675781 353.300781 L 26.089844 314.285156 L 26.089844 236.183594 L 46.390625 247.921875 L 46.390625 279.839844 C 46.390625 281.878906 47.445312 283.707031 49.203125 284.691406 L 64.941406 293.757812 C 68.523438 295.9375 73.511719 293.054688 73.371094 288.90625 C 73.371094 288.90625 73.371094 263.53125 73.371094 263.53125 L 93.675781 275.269531 Z M 99.296875 265.5 C 95.855469 263.53125 81.519531 255.234375 78.359375 253.40625 L 142.363281 212.351562 C 146.296875 214.601562 154.660156 219.453125 158.59375 221.773438 C 158.59375 221.773438 166.8125 226.480469 166.8125 226.480469 Z M 104.917969 353.300781 L 104.917969 275.199219 C 114.121094 269.855469 162.246094 242.089844 172.503906 236.183594 L 172.503906 314.285156 C 155.710938 323.917969 121.988281 343.460938 104.917969 353.300781 Z M 348.921875 335.023438 C 348.921875 337.203125 347.304688 339.03125 345.40625 339.03125 L 152.058594 339.03125 L 153.253906 338.328125 L 168.359375 329.609375 L 332.058594 329.609375 C 336.765625 329.609375 340.628906 325.675781 340.628906 320.894531 L 340.628906 69.574219 C 340.628906 64.722656 336.765625 60.789062 332.058594 60.789062 L 298.054688 60.789062 L 298.054688 51.367188 L 345.265625 51.367188 C 347.164062 51.367188 348.78125 53.195312 348.78125 55.445312 L 348.78125 335.023438 Z M 238.335938 113.230469 L 286.601562 113.230469 C 289.695312 113.230469 292.222656 115.761719 292.222656 118.855469 C 292.222656 121.949219 289.695312 124.480469 286.601562 124.480469 L 238.335938 124.480469 C 235.246094 124.480469 232.714844 121.949219 232.714844 118.855469 C 232.714844 115.761719 235.246094 113.230469 238.335938 113.230469 Z M 238.335938 132.140625 L 306.203125 132.140625 C 309.296875 132.140625 311.824219 134.671875 311.824219 137.765625 C 311.824219 140.859375 309.296875 143.390625 306.203125 143.390625 L 238.335938 143.390625 C 235.246094 143.390625 232.714844 140.859375 232.714844 137.765625 C 232.714844 134.671875 235.246094 132.140625 238.335938 132.140625 Z M 238.335938 180.085938 L 286.601562 180.085938 C 289.695312 180.085938 292.222656 182.617188 292.222656 185.707031 C 292.222656 188.800781 289.695312 191.332031 286.601562 191.332031 L 238.335938 191.332031 C 235.246094 191.332031 232.714844 188.800781 232.714844 185.707031 C 232.714844 182.617188 235.246094 180.085938 238.335938 180.085938 Z M 306.203125 210.3125 L 238.335938 210.3125 C 235.246094 210.3125 232.714844 207.78125 232.714844 204.691406 C 232.714844 201.597656 235.246094 199.066406 238.335938 199.066406 L 306.203125 199.066406 C 313.652344 199.207031 313.582031 210.242188 306.203125 210.3125 Z M 178.6875 118.152344 C 178.6875 118.363281 178.617188 118.503906 178.617188 118.714844 L 178.617188 137.90625 C 178.617188 144.65625 184.097656 150.136719 190.839844 150.136719 L 210.023438 150.136719 C 216.765625 150.136719 222.246094 144.65625 222.246094 137.90625 L 222.246094 118.714844 C 222.246094 118.433594 222.175781 118.152344 222.175781 117.871094 L 238.898438 101.140625 C 244.027344 95.796875 236.226562 88.0625 230.957031 93.195312 C 230.957031 93.195312 215.992188 108.167969 215.992188 108.167969 C 214.238281 107.183594 212.199219 106.550781 210.023438 106.550781 L 190.839844 106.550781 C 188.382812 106.550781 186.132812 107.253906 184.238281 108.519531 C 178.265625 106.058594 173.628906 114.074219 178.6875 118.152344 Z M 206.367188 117.730469 L 200.257812 123.847656 L 194.144531 117.730469 Z M 189.859375 129.398438 C 192.949219 132.070312 196.8125 137.765625 200.257812 137.484375 C 201.730469 137.484375 203.207031 136.921875 204.261719 135.867188 L 211.003906 129.117188 L 211.003906 138.046875 C 211.003906 138.609375 210.582031 139.03125 210.023438 139.03125 L 190.839844 139.03125 C 190.28125 139.03125 189.859375 138.609375 189.859375 138.046875 Z M 238.96875 167.5 C 244.097656 162.160156 236.296875 154.425781 231.027344 159.558594 C 231.027344 159.558594 215.78125 174.8125 215.78125 174.8125 C 214.097656 173.898438 212.199219 173.335938 210.09375 173.335938 L 190.910156 173.335938 C 188.664062 173.335938 186.554688 173.96875 184.730469 175.09375 C 178.617188 172.070312 173.558594 180.296875 178.828125 184.585938 C 178.828125 184.9375 178.757812 185.214844 178.757812 185.566406 L 178.757812 204.761719 C 178.757812 211.507812 184.238281 216.992188 190.980469 216.992188 L 210.164062 216.992188 C 216.90625 216.992188 222.386719 211.507812 222.386719 204.761719 L 222.386719 185.566406 C 222.386719 185.148438 222.316406 184.726562 222.246094 184.234375 Z M 205.875 184.65625 L 200.257812 190.277344 L 194.636719 184.65625 Z M 211.003906 204.832031 C 211.003906 205.390625 210.582031 205.8125 210.023438 205.8125 L 190.839844 205.8125 C 190.28125 205.8125 189.859375 205.390625 189.859375 204.832031 L 189.859375 195.832031 C 192.949219 198.503906 196.8125 204.199219 200.257812 203.917969 C 201.730469 203.917969 203.207031 203.355469 204.261719 202.300781 L 211.003906 195.550781 Z M 211.003906 204.832031 " fill-opacity="1" fill-rule="nonzero"></path></g></svg>