<svg xmlns="http://www.w3.org/2000/svg" xmlns:xlink="http://www.w3.org/1999/xlink" width="500" viewBox="0 0 375 374.999991" height="500" preserveAspectRatio="xMidYMid meet"><defs><clipPath id="2b8f6553fc"><path d="M 81 4.246094 L 294 4.246094 L 294 33 L 81 33 Z M 81 4.246094 " clip-rule="nonzero"></path></clipPath><clipPath id="a75fc7feb7"><path d="M 81 113 L 294 113 L 294 370.996094 L 81 370.996094 Z M 81 113 " clip-rule="nonzero"></path></clipPath><clipPath id="7a757b9f9f"><path d="M 58.308594 55 L 317 55 L 317 91 L 58.308594 91 Z M 58.308594 55 " clip-rule="nonzero"></path></clipPath><clipPath id="343d7ad774"><path d="M 58.308594 95 L 88 95 L 88 114 L 58.308594 114 Z M 58.308594 95 " clip-rule="nonzero"></path></clipPath><clipPath id="d76b859f5f"><path d="M 58.308594 84 L 65 84 L 65 102 L 58.308594 102 Z M 58.308594 84 " clip-rule="nonzero"></path></clipPath></defs><rect x="-37.5" width="450" fill="#ffffff" y="-37.499999" height="449.999989" fill-opacity="1"></rect><rect x="-37.5" width="450" fill="#ffffff" y="-37.499999" height="449.999989" fill-opacity="1"></rect><path fill="#000000" d="M 153.484375 27.144531 C 151.898438 27.144531 150.589844 25.863281 150.589844 24.28125 C 150.589844 22.699219 151.84375 21.414062 153.429688 21.414062 L 153.484375 21.414062 C 155.070312 21.414062 156.351562 22.699219 156.351562 24.28125 C 156.351562 25.863281 155.070312 27.144531 153.484375 27.144531 Z M 153.484375 27.144531 " fill-opacity="1" fill-rule="nonzero"></path><g clip-path="url(#2b8f6553fc)"><path fill="#000000" d="M 290.9375 32.875 C 289.355469 32.875 288.070312 31.59375 288.070312 30.011719 C 288.070312 18.953125 279.066406 9.957031 268 9.957031 L 107.433594 9.957031 C 96.367188 9.957031 87.363281 18.953125 87.363281 30.011719 C 87.363281 31.59375 86.082031 32.875 84.496094 32.875 C 82.914062 32.875 81.628906 31.59375 81.628906 30.011719 C 81.628906 15.792969 93.203125 4.226562 107.433594 4.226562 L 268 4.226562 C 282.230469 4.226562 293.804688 15.792969 293.804688 30.011719 C 293.804688 31.59375 292.523438 32.875 290.9375 32.875 Z M 290.9375 32.875 " fill-opacity="1" fill-rule="nonzero"></path></g><g clip-path="url(#a75fc7feb7)"><path fill="#000000" d="M 262.265625 370.945312 L 107.433594 370.945312 C 93.203125 370.945312 81.628906 359.378906 81.628906 345.160156 L 81.628906 115.960938 C 81.628906 114.378906 82.914062 113.097656 84.496094 113.097656 C 86.082031 113.097656 87.363281 114.378906 87.363281 115.960938 L 87.363281 345.164062 C 87.363281 356.21875 96.371094 365.21875 107.433594 365.21875 L 262.265625 365.21875 C 273.640625 365.21875 288.070312 355.769531 288.070312 345.164062 L 288.070312 115.960938 C 288.070312 114.378906 289.351562 113.097656 290.9375 113.097656 C 292.523438 113.097656 293.804688 114.378906 293.804688 115.960938 L 293.804688 345.164062 C 293.804688 359.441406 276.550781 370.945312 262.265625 370.945312 Z M 262.265625 370.945312 " fill-opacity="1" fill-rule="nonzero"></path></g><path fill="#000000" d="M 279.46875 319.375 L 95.964844 319.375 C 94.382812 319.375 93.097656 318.09375 93.097656 316.511719 C 93.097656 314.929688 94.382812 313.644531 95.964844 313.644531 L 279.46875 313.644531 C 281.054688 313.644531 282.335938 314.929688 282.335938 316.511719 C 282.335938 318.09375 281.054688 319.375 279.46875 319.375 Z M 279.46875 319.375 " fill-opacity="1" fill-rule="nonzero"></path><path fill="#000000" d="M 184.851562 359.488281 C 175.363281 359.488281 167.648438 351.773438 167.648438 342.296875 C 167.648438 332.816406 175.363281 325.105469 184.851562 325.105469 C 194.335938 325.105469 202.054688 332.816406 202.054688 342.296875 C 202.054688 351.773438 194.335938 359.488281 184.851562 359.488281 Z M 184.851562 330.835938 C 178.527344 330.835938 173.382812 335.972656 173.382812 342.296875 C 173.382812 348.621094 178.527344 353.757812 184.851562 353.757812 C 191.179688 353.757812 196.320312 348.621094 196.320312 342.296875 C 196.320312 335.972656 191.179688 330.835938 184.851562 330.835938 Z M 184.851562 330.835938 " fill-opacity="1" fill-rule="nonzero"></path><path fill="#000000" d="M 222.125 27.144531 L 170.515625 27.144531 C 168.929688 27.144531 167.648438 25.863281 167.648438 24.28125 C 167.648438 22.699219 168.929688 21.414062 170.515625 21.414062 L 222.125 21.414062 C 223.710938 21.414062 224.992188 22.699219 224.992188 24.28125 C 224.992188 25.863281 223.710938 27.144531 222.125 27.144531 Z M 222.125 27.144531 " fill-opacity="1" fill-rule="nonzero"></path><g clip-path="url(#7a757b9f9f)"><path fill="#000000" d="M 61.558594 90.175781 C 60.925781 90.175781 60.289062 89.964844 59.757812 89.535156 C 58.523438 88.539062 58.335938 86.734375 59.335938 85.507812 L 82.582031 56.855469 C 83.125 56.183594 83.941406 55.796875 84.804688 55.796875 L 291.246094 55.796875 C 292.125 55.796875 292.953125 56.199219 293.5 56.886719 L 316.128906 85.539062 C 317.109375 86.78125 316.894531 88.578125 315.652344 89.5625 C 314.421875 90.539062 312.605469 90.328125 311.625 89.085938 L 289.859375 61.527344 L 86.171875 61.527344 L 63.789062 89.117188 C 63.222656 89.8125 62.394531 90.175781 61.558594 90.175781 Z M 61.558594 90.175781 " fill-opacity="1" fill-rule="nonzero"></path></g><g clip-path="url(#343d7ad774)"><path fill="#000000" d="M 73.027344 113.097656 C 65.121094 113.097656 58.691406 106.667969 58.691406 98.769531 C 58.691406 97.1875 59.972656 95.90625 61.558594 95.90625 C 63.144531 95.90625 64.425781 97.1875 64.425781 98.769531 C 64.425781 103.511719 68.285156 107.367188 73.027344 107.367188 C 77.773438 107.367188 81.632812 103.511719 81.632812 98.769531 C 81.632812 97.1875 82.914062 95.90625 84.5 95.90625 C 86.082031 95.90625 87.367188 97.1875 87.367188 98.769531 C 87.363281 106.671875 80.929688 113.097656 73.027344 113.097656 Z M 73.027344 113.097656 " fill-opacity="1" fill-rule="nonzero"></path></g><path fill="#000000" d="M 95.964844 113.097656 C 88.058594 113.097656 81.628906 106.667969 81.628906 98.769531 C 81.628906 97.1875 82.914062 95.90625 84.496094 95.90625 C 86.082031 95.90625 87.363281 97.1875 87.363281 98.769531 C 87.363281 103.511719 91.222656 107.367188 95.964844 107.367188 C 100.710938 107.367188 104.566406 103.511719 104.566406 98.769531 C 104.566406 97.1875 105.851562 95.90625 107.433594 95.90625 C 109.019531 95.90625 110.300781 97.1875 110.300781 98.769531 C 110.300781 106.671875 103.867188 113.097656 95.964844 113.097656 Z M 95.964844 113.097656 " fill-opacity="1" fill-rule="nonzero"></path><path fill="#000000" d="M 118.902344 113.097656 C 110.996094 113.097656 104.566406 106.667969 104.566406 98.769531 C 104.566406 97.1875 105.851562 95.90625 107.433594 95.90625 C 109.019531 95.90625 110.300781 97.1875 110.300781 98.769531 C 110.300781 103.511719 114.160156 107.367188 118.902344 107.367188 C 123.648438 107.367188 127.507812 103.511719 127.507812 98.769531 C 127.507812 97.1875 128.789062 95.90625 130.375 95.90625 C 131.957031 95.90625 133.242188 97.1875 133.242188 98.769531 C 133.242188 106.671875 126.804688 113.097656 118.902344 113.097656 Z M 118.902344 113.097656 " fill-opacity="1" fill-rule="nonzero"></path><path fill="#000000" d="M 141.84375 113.097656 C 133.933594 113.097656 127.507812 106.667969 127.507812 98.769531 C 127.507812 97.1875 128.789062 95.90625 130.375 95.90625 C 131.957031 95.90625 133.242188 97.1875 133.242188 98.769531 C 133.242188 103.511719 137.097656 107.367188 141.84375 107.367188 C 146.585938 107.367188 150.445312 103.511719 150.445312 98.769531 C 150.445312 97.1875 151.726562 95.90625 153.3125 95.90625 C 154.894531 95.90625 156.179688 97.1875 156.179688 98.769531 C 156.179688 106.671875 149.742188 113.097656 141.84375 113.097656 Z M 141.84375 113.097656 " fill-opacity="1" fill-rule="nonzero"></path><path fill="#000000" d="M 164.78125 113.097656 C 156.871094 113.097656 150.445312 106.667969 150.445312 98.769531 C 150.445312 97.1875 151.726562 95.90625 153.3125 95.90625 C 154.894531 95.90625 156.179688 97.1875 156.179688 98.769531 C 156.179688 103.511719 160.035156 107.367188 164.78125 107.367188 C 169.523438 107.367188 173.382812 103.511719 173.382812 98.769531 C 173.382812 97.1875 174.664062 95.90625 176.25 95.90625 C 177.835938 95.90625 179.117188 97.1875 179.117188 98.769531 C 179.117188 106.671875 172.683594 113.097656 164.78125 113.097656 Z M 164.78125 113.097656 " fill-opacity="1" fill-rule="nonzero"></path><path fill="#000000" d="M 187.71875 113.097656 C 179.808594 113.097656 173.382812 106.667969 173.382812 98.769531 C 173.382812 97.1875 174.664062 95.90625 176.25 95.90625 C 177.832031 95.90625 179.117188 97.1875 179.117188 98.769531 C 179.117188 103.511719 182.972656 107.367188 187.71875 107.367188 C 192.460938 107.367188 196.320312 103.511719 196.320312 98.769531 C 196.320312 97.1875 197.601562 95.90625 199.1875 95.90625 C 200.769531 95.90625 202.054688 97.1875 202.054688 98.769531 C 202.054688 106.671875 195.625 113.097656 187.71875 113.097656 Z M 187.71875 113.097656 " fill-opacity="1" fill-rule="nonzero"></path><path fill="#000000" d="M 210.65625 113.097656 C 202.753906 113.097656 196.320312 106.667969 196.320312 98.769531 C 196.320312 97.1875 197.601562 95.90625 199.1875 95.90625 C 200.769531 95.90625 202.054688 97.1875 202.054688 98.769531 C 202.054688 103.511719 205.914062 107.367188 210.65625 107.367188 C 215.398438 107.367188 219.257812 103.511719 219.257812 98.769531 C 219.257812 97.1875 220.539062 95.90625 222.125 95.90625 C 223.710938 95.90625 224.992188 97.1875 224.992188 98.769531 C 224.992188 106.671875 218.5625 113.097656 210.65625 113.097656 Z M 210.65625 113.097656 " fill-opacity="1" fill-rule="nonzero"></path><path fill="#000000" d="M 233.59375 113.097656 C 225.691406 113.097656 219.257812 106.667969 219.257812 98.769531 C 219.257812 97.1875 220.539062 95.90625 222.125 95.90625 C 223.710938 95.90625 224.992188 97.1875 224.992188 98.769531 C 224.992188 103.511719 228.851562 107.367188 233.59375 107.367188 C 238.335938 107.367188 242.195312 103.511719 242.195312 98.769531 C 242.195312 97.1875 243.476562 95.90625 245.0625 95.90625 C 246.648438 95.90625 247.929688 97.1875 247.929688 98.769531 C 247.929688 106.671875 241.5 113.097656 233.59375 113.097656 Z M 233.59375 113.097656 " fill-opacity="1" fill-rule="nonzero"></path><path fill="#000000" d="M 256.53125 113.097656 C 248.628906 113.097656 242.195312 106.667969 242.195312 98.769531 C 242.195312 97.1875 243.476562 95.90625 245.0625 95.90625 C 246.648438 95.90625 247.929688 97.1875 247.929688 98.769531 C 247.929688 103.511719 251.789062 107.367188 256.53125 107.367188 C 261.273438 107.367188 265.132812 103.511719 265.132812 98.769531 C 265.132812 97.1875 266.414062 95.90625 268 95.90625 C 269.585938 95.90625 270.867188 97.1875 270.867188 98.769531 C 270.867188 106.671875 264.4375 113.097656 256.53125 113.097656 Z M 256.53125 113.097656 " fill-opacity="1" fill-rule="nonzero"></path><path fill="#000000" d="M 279.46875 113.097656 C 271.566406 113.097656 265.132812 106.667969 265.132812 98.769531 C 265.132812 97.1875 266.417969 95.90625 268 95.90625 C 269.585938 95.90625 270.867188 97.1875 270.867188 98.769531 C 270.867188 103.511719 274.726562 107.367188 279.46875 107.367188 C 284.210938 107.367188 288.070312 103.511719 288.070312 98.769531 C 288.070312 97.1875 289.355469 95.90625 290.9375 95.90625 C 292.523438 95.90625 293.804688 97.1875 293.804688 98.769531 C 293.804688 106.671875 287.378906 113.097656 279.46875 113.097656 Z M 279.46875 113.097656 " fill-opacity="1" fill-rule="nonzero"></path><path fill="#000000" d="M 302.40625 113.097656 C 294.503906 113.097656 288.070312 106.667969 288.070312 98.769531 C 288.070312 97.1875 289.355469 95.90625 290.9375 95.90625 C 292.523438 95.90625 293.804688 97.1875 293.804688 98.769531 C 293.804688 103.511719 297.664062 107.367188 302.40625 107.367188 C 307.152344 107.367188 311.007812 103.511719 311.007812 98.769531 C 311.007812 97.1875 312.292969 95.90625 313.875 95.90625 C 315.460938 95.90625 316.742188 97.1875 316.742188 98.769531 C 316.742188 106.671875 310.316406 113.097656 302.40625 113.097656 Z M 302.40625 113.097656 " fill-opacity="1" fill-rule="nonzero"></path><g clip-path="url(#d76b859f5f)"><path fill="#000000" d="M 61.558594 101.636719 C 59.976562 101.636719 58.691406 100.351562 58.691406 98.769531 L 58.691406 87.3125 C 58.691406 85.726562 59.980469 84.445312 61.558594 84.445312 C 63.144531 84.445312 64.425781 85.730469 64.425781 87.3125 L 64.425781 98.769531 C 64.425781 100.355469 63.136719 101.636719 61.558594 101.636719 Z M 61.558594 101.636719 " fill-opacity="1" fill-rule="nonzero"></path></g><path fill="#000000" d="M 302.71875 90.175781 L 73.34375 90.175781 C 71.757812 90.175781 70.476562 88.894531 70.476562 87.3125 C 70.476562 85.726562 71.757812 84.445312 73.34375 84.445312 L 302.722656 84.445312 C 304.304688 84.445312 305.589844 85.726562 305.589844 87.3125 C 305.589844 88.894531 304.304688 90.175781 302.71875 90.175781 Z M 302.71875 90.175781 " fill-opacity="1" fill-rule="nonzero"></path><path fill="#000000" d="M 88.988281 84.445312 C 88.402344 84.445312 87.8125 84.265625 87.304688 83.894531 C 86.019531 82.964844 85.738281 81.171875 86.675781 79.894531 L 99.21875 62.703125 C 100.148438 61.421875 101.941406 61.140625 103.222656 62.078125 C 104.5 63.011719 104.785156 64.800781 103.851562 66.078125 L 91.308594 83.269531 C 90.746094 84.039062 89.875 84.445312 88.988281 84.445312 Z M 88.988281 84.445312 " fill-opacity="1" fill-rule="nonzero"></path><path fill="#000000" d="M 110.761719 84.445312 C 110.273438 84.445312 109.777344 84.324219 109.320312 84.058594 C 107.957031 83.265625 107.484375 81.511719 108.28125 80.144531 L 118.261719 62.953125 C 119.054688 61.585938 120.808594 61.113281 122.179688 61.914062 C 123.550781 62.707031 124.015625 64.460938 123.222656 65.832031 L 113.242188 83.019531 C 112.710938 83.933594 111.746094 84.445312 110.761719 84.445312 Z M 110.761719 84.445312 " fill-opacity="1" fill-rule="nonzero"></path><path fill="#000000" d="M 132.78125 84.445312 C 132.40625 84.445312 132.03125 84.375 131.667969 84.222656 C 130.210938 83.609375 129.523438 81.929688 130.136719 80.472656 L 137.367188 63.28125 C 137.984375 61.816406 139.667969 61.144531 141.117188 61.75 C 142.582031 62.363281 143.261719 64.042969 142.652344 65.503906 L 135.425781 82.691406 C 134.960938 83.789062 133.894531 84.445312 132.78125 84.445312 Z M 132.78125 84.445312 " fill-opacity="1" fill-rule="nonzero"></path><path fill="#000000" d="M 154.804688 84.445312 C 154.566406 84.445312 154.324219 84.417969 154.082031 84.355469 C 152.550781 83.957031 151.632812 82.394531 152.027344 80.859375 L 156.503906 63.667969 C 156.902344 62.132812 158.46875 61.214844 160.003906 61.617188 C 161.53125 62.015625 162.449219 63.578125 162.054688 65.113281 L 157.578125 82.304688 C 157.242188 83.59375 156.082031 84.445312 154.804688 84.445312 Z M 154.804688 84.445312 " fill-opacity="1" fill-rule="nonzero"></path><path fill="#000000" d="M 176.824219 84.445312 C 176.730469 84.445312 176.636719 84.441406 176.535156 84.433594 C 174.960938 84.273438 173.8125 82.871094 173.96875 81.296875 L 175.695312 64.105469 C 175.851562 62.535156 177.238281 61.40625 178.832031 61.539062 C 180.410156 61.699219 181.558594 63.101562 181.402344 64.675781 L 179.675781 81.867188 C 179.523438 83.34375 178.28125 84.445312 176.824219 84.445312 Z M 176.824219 84.445312 " fill-opacity="1" fill-rule="nonzero"></path><path fill="#000000" d="M 199.097656 84.445312 C 197.601562 84.445312 196.347656 83.292969 196.242188 81.78125 L 195.027344 64.59375 C 194.914062 63.015625 196.101562 61.644531 197.679688 61.535156 C 199.230469 61.375 200.632812 62.613281 200.742188 64.191406 L 201.957031 81.378906 C 202.070312 82.957031 200.878906 84.328125 199.296875 84.4375 C 199.230469 84.445312 199.164062 84.445312 199.097656 84.445312 Z M 199.097656 84.445312 " fill-opacity="1" fill-rule="nonzero"></path><path fill="#000000" d="M 220.859375 84.445312 C 219.542969 84.445312 218.355469 83.535156 218.058594 82.195312 L 214.28125 65 C 213.945312 63.453125 214.917969 61.925781 216.464844 61.585938 C 217.992188 61.242188 219.539062 62.222656 219.878906 63.769531 L 223.660156 80.964844 C 224 82.511719 223.019531 84.039062 221.476562 84.378906 C 221.269531 84.425781 221.0625 84.445312 220.859375 84.445312 Z M 220.859375 84.445312 " fill-opacity="1" fill-rule="nonzero"></path><path fill="#000000" d="M 243.136719 84.445312 C 241.992188 84.445312 240.90625 83.757812 240.464844 82.621094 L 233.746094 65.425781 C 233.167969 63.957031 233.902344 62.292969 235.375 61.714844 C 236.839844 61.140625 238.511719 61.867188 239.085938 63.34375 L 245.808594 80.539062 C 246.382812 82.011719 245.65625 83.675781 244.175781 84.25 C 243.835938 84.386719 243.484375 84.445312 243.136719 84.445312 Z M 243.136719 84.445312 " fill-opacity="1" fill-rule="nonzero"></path><path fill="#000000" d="M 265.167969 84.445312 C 264.152344 84.445312 263.171875 83.914062 262.652344 82.964844 L 253.175781 65.769531 C 252.410156 64.378906 252.917969 62.640625 254.300781 61.875 C 255.691406 61.113281 257.433594 61.617188 258.199219 63.003906 L 267.675781 80.199219 C 268.4375 81.585938 267.933594 83.328125 266.542969 84.089844 C 266.109375 84.332031 265.632812 84.445312 265.167969 84.445312 Z M 265.167969 84.445312 " fill-opacity="1" fill-rule="nonzero"></path><path fill="#000000" d="M 287.179688 84.445312 C 286.277344 84.445312 285.398438 84.027344 284.839844 83.242188 L 272.613281 66.046875 C 271.695312 64.753906 272 62.96875 273.292969 62.050781 C 274.578125 61.125 276.371094 61.4375 277.289062 62.726562 L 289.515625 79.921875 C 290.425781 81.210938 290.125 83 288.835938 83.917969 C 288.335938 84.277344 287.753906 84.445312 287.179688 84.445312 Z M 287.179688 84.445312 " fill-opacity="1" fill-rule="nonzero"></path><path fill="#000000" d="M 313.875 101.636719 C 312.292969 101.636719 311.007812 100.355469 311.007812 98.769531 L 311.007812 87.3125 C 311.007812 85.726562 312.292969 84.445312 313.875 84.445312 C 315.460938 84.445312 316.742188 85.726562 316.742188 87.3125 L 316.742188 98.769531 C 316.742188 100.355469 315.460938 101.636719 313.875 101.636719 Z M 313.875 101.636719 " fill-opacity="1" fill-rule="nonzero"></path><path fill="#000000" d="M 262.265625 227.695312 L 199.1875 227.695312 C 197.601562 227.695312 196.320312 226.414062 196.320312 224.832031 L 196.320312 133.152344 C 196.320312 131.570312 197.601562 130.285156 199.1875 130.285156 L 262.265625 130.285156 C 263.851562 130.285156 265.132812 131.570312 265.132812 133.152344 L 265.132812 224.832031 C 265.132812 226.414062 263.851562 227.695312 262.265625 227.695312 Z M 202.054688 221.964844 L 259.398438 221.964844 L 259.398438 136.015625 L 202.054688 136.015625 Z M 202.054688 221.964844 " fill-opacity="1" fill-rule="nonzero"></path><path fill="#000000" d="M 245.0625 216.238281 L 216.390625 216.238281 C 211.648438 216.238281 207.789062 212.378906 207.789062 207.640625 C 207.789062 202.902344 211.648438 199.046875 216.390625 199.046875 L 245.0625 199.046875 C 249.804688 199.046875 253.664062 202.902344 253.664062 207.640625 C 253.664062 212.378906 249.804688 216.238281 245.0625 216.238281 Z M 216.390625 204.777344 C 214.8125 204.777344 213.523438 206.0625 213.523438 207.640625 C 213.523438 209.21875 214.8125 210.507812 216.390625 210.507812 L 245.0625 210.507812 C 246.648438 210.507812 247.929688 209.21875 247.929688 207.640625 C 247.929688 206.0625 246.648438 204.777344 245.0625 204.777344 Z M 216.390625 204.777344 " fill-opacity="1" fill-rule="nonzero"></path><path fill="#000000" d="M 262.265625 181.855469 L 199.1875 181.855469 C 197.601562 181.855469 196.320312 180.574219 196.320312 178.992188 C 196.320312 177.40625 197.601562 176.125 199.1875 176.125 L 262.265625 176.125 C 263.851562 176.125 265.132812 177.40625 265.132812 178.992188 C 265.132812 180.574219 263.851562 181.855469 262.265625 181.855469 Z M 262.265625 181.855469 " fill-opacity="1" fill-rule="nonzero"></path><path fill="#000000" d="M 262.269531 181.855469 C 261.398438 181.855469 260.535156 181.460938 259.976562 180.710938 L 245.0625 160.847656 L 230.15625 180.710938 C 229.207031 181.980469 227.410156 182.230469 226.140625 181.28125 C 224.875 180.335938 224.617188 178.539062 225.566406 177.273438 L 242.773438 154.355469 C 243.851562 152.910156 246.277344 152.910156 247.359375 154.355469 L 264.5625 177.273438 C 265.511719 178.539062 265.253906 180.332031 263.984375 181.28125 C 263.46875 181.667969 262.871094 181.855469 262.269531 181.855469 Z M 262.269531 181.855469 " fill-opacity="1" fill-rule="nonzero"></path><path fill="#000000" d="M 210.65625 181.855469 C 210.027344 181.855469 209.394531 181.652344 208.863281 181.230469 C 207.632812 180.238281 207.429688 178.4375 208.414062 177.199219 L 219.886719 162.875 C 220.433594 162.195312 221.257812 161.800781 222.125 161.800781 C 223 161.800781 223.820312 162.199219 224.363281 162.878906 L 232.875 173.515625 C 233.867188 174.75 233.667969 176.554688 232.429688 177.542969 C 231.195312 178.527344 229.386719 178.328125 228.398438 177.089844 L 222.125 169.25 L 212.894531 180.78125 C 212.332031 181.488281 211.496094 181.855469 210.65625 181.855469 Z M 210.65625 181.855469 " fill-opacity="1" fill-rule="nonzero"></path><path fill="#000000" d="M 216.390625 158.9375 C 211.648438 158.9375 207.789062 155.082031 207.789062 150.339844 C 207.789062 145.601562 211.648438 141.746094 216.390625 141.746094 C 221.132812 141.746094 224.992188 145.601562 224.992188 150.339844 C 224.992188 155.082031 221.132812 158.9375 216.390625 158.9375 Z M 216.390625 147.476562 C 214.8125 147.476562 213.523438 148.761719 213.523438 150.339844 C 213.523438 151.921875 214.8125 153.207031 216.390625 153.207031 C 217.976562 153.207031 219.257812 151.921875 219.257812 150.339844 C 219.257812 148.761719 217.976562 147.476562 216.390625 147.476562 Z M 216.390625 147.476562 " fill-opacity="1" fill-rule="nonzero"></path><path fill="#000000" d="M 227.859375 193.316406 L 210.65625 193.316406 C 209.070312 193.316406 207.789062 192.035156 207.789062 190.453125 C 207.789062 188.867188 209.070312 187.585938 210.65625 187.585938 L 227.859375 187.585938 C 229.445312 187.585938 230.726562 188.867188 230.726562 190.453125 C 230.726562 192.035156 229.445312 193.316406 227.859375 193.316406 Z M 227.859375 193.316406 " fill-opacity="1" fill-rule="nonzero"></path><path fill="#000000" d="M 250.796875 193.316406 L 242.195312 193.316406 C 240.609375 193.316406 239.328125 192.035156 239.328125 190.453125 C 239.328125 188.867188 240.609375 187.585938 242.195312 187.585938 L 250.796875 187.585938 C 252.382812 187.585938 253.664062 188.867188 253.664062 190.453125 C 253.664062 192.035156 252.382812 193.316406 250.796875 193.316406 Z M 250.796875 193.316406 " fill-opacity="1" fill-rule="nonzero"></path><path fill="#000000" d="M 222.125 216.238281 C 220.539062 216.238281 219.257812 214.957031 219.257812 213.371094 L 219.257812 201.910156 C 219.257812 200.328125 220.539062 199.046875 222.125 199.046875 C 223.710938 199.046875 224.992188 200.328125 224.992188 201.910156 L 224.992188 213.371094 C 224.992188 214.957031 223.710938 216.238281 222.125 216.238281 Z M 222.125 216.238281 " fill-opacity="1" fill-rule="nonzero"></path><path fill="#000000" d="M 176.25 227.695312 L 113.167969 227.695312 C 111.585938 227.695312 110.300781 226.414062 110.300781 224.832031 L 110.300781 133.152344 C 110.300781 131.570312 111.585938 130.285156 113.167969 130.285156 L 176.25 130.285156 C 177.832031 130.285156 179.117188 131.570312 179.117188 133.152344 L 179.117188 224.832031 C 179.117188 226.414062 177.832031 227.695312 176.25 227.695312 Z M 116.035156 221.964844 L 173.382812 221.964844 L 173.382812 136.015625 L 116.035156 136.015625 Z M 116.035156 221.964844 " fill-opacity="1" fill-rule="nonzero"></path><path fill="#000000" d="M 159.046875 216.238281 L 130.375 216.238281 C 125.628906 216.238281 121.773438 212.378906 121.773438 207.640625 C 121.773438 202.902344 125.628906 199.046875 130.375 199.046875 L 159.046875 199.046875 C 163.789062 199.046875 167.648438 202.902344 167.648438 207.640625 C 167.648438 212.378906 163.789062 216.238281 159.046875 216.238281 Z M 130.375 204.777344 C 128.792969 204.777344 127.507812 206.0625 127.507812 207.640625 C 127.507812 209.21875 128.792969 210.507812 130.375 210.507812 L 159.046875 210.507812 C 160.628906 210.507812 161.914062 209.21875 161.914062 207.640625 C 161.914062 206.0625 160.628906 204.777344 159.046875 204.777344 Z M 130.375 204.777344 " fill-opacity="1" fill-rule="nonzero"></path><path fill="#000000" d="M 176.25 181.855469 L 113.167969 181.855469 C 111.585938 181.855469 110.300781 180.574219 110.300781 178.992188 C 110.300781 177.40625 111.585938 176.125 113.167969 176.125 L 176.25 176.125 C 177.832031 176.125 179.117188 177.40625 179.117188 178.992188 C 179.117188 180.574219 177.832031 181.855469 176.25 181.855469 Z M 176.25 181.855469 " fill-opacity="1" fill-rule="nonzero"></path><path fill="#000000" d="M 176.253906 181.855469 C 175.382812 181.855469 174.519531 181.460938 173.957031 180.710938 L 159.046875 160.847656 L 144.136719 180.710938 C 143.191406 181.980469 141.394531 182.230469 140.121094 181.28125 C 138.855469 180.335938 138.601562 178.539062 139.550781 177.273438 L 156.753906 154.355469 C 157.835938 152.910156 160.261719 152.910156 161.339844 154.355469 L 178.546875 177.273438 C 179.496094 178.539062 179.238281 180.332031 177.96875 181.28125 C 177.453125 181.667969 176.855469 181.855469 176.253906 181.855469 Z M 176.253906 181.855469 " fill-opacity="1" fill-rule="nonzero"></path><path fill="#000000" d="M 124.640625 181.855469 C 124.011719 181.855469 123.378906 181.652344 122.847656 181.230469 C 121.613281 180.238281 121.414062 178.4375 122.398438 177.199219 L 133.867188 162.875 C 134.417969 162.195312 135.238281 161.800781 136.109375 161.800781 C 136.980469 161.800781 137.804688 162.199219 138.347656 162.878906 L 146.859375 173.515625 C 147.851562 174.75 147.652344 176.554688 146.414062 177.542969 C 145.175781 178.527344 143.367188 178.328125 142.378906 177.089844 L 136.109375 169.25 L 126.878906 180.78125 C 126.3125 181.488281 125.480469 181.855469 124.640625 181.855469 Z M 124.640625 181.855469 " fill-opacity="1" fill-rule="nonzero"></path><path fill="#000000" d="M 130.375 158.9375 C 125.628906 158.9375 121.773438 155.082031 121.773438 150.339844 C 121.773438 145.601562 125.628906 141.746094 130.375 141.746094 C 135.117188 141.746094 138.976562 145.601562 138.976562 150.339844 C 138.976562 155.082031 135.117188 158.9375 130.375 158.9375 Z M 130.375 147.476562 C 128.792969 147.476562 127.507812 148.761719 127.507812 150.339844 C 127.507812 151.921875 128.792969 153.207031 130.375 153.207031 C 131.957031 153.207031 133.242188 151.921875 133.242188 150.339844 C 133.242188 148.761719 131.957031 147.476562 130.375 147.476562 Z M 130.375 147.476562 " fill-opacity="1" fill-rule="nonzero"></path><path fill="#000000" d="M 141.84375 193.316406 L 124.640625 193.316406 C 123.054688 193.316406 121.773438 192.035156 121.773438 190.453125 C 121.773438 188.867188 123.054688 187.585938 124.640625 187.585938 L 141.84375 187.585938 C 143.425781 187.585938 144.710938 188.867188 144.710938 190.453125 C 144.710938 192.035156 143.425781 193.316406 141.84375 193.316406 Z M 141.84375 193.316406 " fill-opacity="1" fill-rule="nonzero"></path><path fill="#000000" d="M 164.78125 193.316406 L 156.179688 193.316406 C 154.59375 193.316406 153.308594 192.035156 153.308594 190.453125 C 153.308594 188.867188 154.59375 187.585938 156.179688 187.585938 L 164.78125 187.585938 C 166.363281 187.585938 167.648438 188.867188 167.648438 190.453125 C 167.648438 192.035156 166.363281 193.316406 164.78125 193.316406 Z M 164.78125 193.316406 " fill-opacity="1" fill-rule="nonzero"></path><path fill="#000000" d="M 136.109375 216.238281 C 134.523438 216.238281 133.238281 214.957031 133.238281 213.371094 L 133.238281 201.910156 C 133.238281 200.328125 134.523438 199.046875 136.109375 199.046875 C 137.691406 199.046875 138.976562 200.328125 138.976562 201.910156 L 138.976562 213.371094 C 138.976562 214.957031 137.691406 216.238281 136.109375 216.238281 Z M 136.109375 216.238281 " fill-opacity="1" fill-rule="nonzero"></path><path fill="#000000" d="M 262.265625 307.917969 C 260.683594 307.917969 259.398438 306.636719 259.398438 305.050781 L 259.398438 244.886719 L 202.054688 244.886719 L 202.054688 305.050781 C 202.054688 306.636719 200.773438 307.917969 199.1875 307.917969 C 197.601562 307.917969 196.320312 306.636719 196.320312 305.050781 L 196.320312 242.023438 C 196.320312 240.4375 197.601562 239.15625 199.1875 239.15625 L 262.265625 239.15625 C 263.851562 239.15625 265.132812 240.4375 265.132812 242.023438 L 265.132812 305.050781 C 265.132812 306.636719 263.851562 307.917969 262.265625 307.917969 Z M 262.265625 307.917969 " fill-opacity="1" fill-rule="nonzero"></path><path fill="#000000" d="M 262.265625 290.726562 L 199.1875 290.726562 C 197.601562 290.726562 196.320312 289.445312 196.320312 287.863281 C 196.320312 286.277344 197.601562 284.996094 199.1875 284.996094 L 262.265625 284.996094 C 263.851562 284.996094 265.132812 286.277344 265.132812 287.863281 C 265.132812 289.445312 263.851562 290.726562 262.265625 290.726562 Z M 262.265625 290.726562 " fill-opacity="1" fill-rule="nonzero"></path><path fill="#000000" d="M 262.269531 290.726562 C 261.398438 290.726562 260.535156 290.335938 259.976562 289.578125 L 245.0625 269.71875 L 230.15625 289.578125 C 229.207031 290.847656 227.410156 291.105469 226.140625 290.15625 C 224.875 289.203125 224.617188 287.40625 225.566406 286.144531 L 242.773438 263.222656 C 243.851562 261.78125 246.277344 261.78125 247.359375 263.222656 L 264.5625 286.144531 C 265.511719 287.40625 265.253906 289.203125 263.984375 290.15625 C 263.46875 290.535156 262.871094 290.726562 262.269531 290.726562 Z M 262.269531 290.726562 " fill-opacity="1" fill-rule="nonzero"></path><path fill="#000000" d="M 210.65625 290.726562 C 210.027344 290.726562 209.394531 290.527344 208.863281 290.101562 C 207.632812 289.109375 207.429688 287.308594 208.414062 286.070312 L 219.886719 271.746094 C 220.433594 271.0625 221.257812 270.671875 222.125 270.671875 C 223 270.671875 223.820312 271.070312 224.363281 271.746094 L 232.875 282.390625 C 233.867188 283.621094 233.667969 285.421875 232.429688 286.410156 C 231.195312 287.402344 229.386719 287.195312 228.398438 285.957031 L 222.125 278.125 L 212.894531 289.652344 C 212.332031 290.359375 211.496094 290.726562 210.65625 290.726562 Z M 210.65625 290.726562 " fill-opacity="1" fill-rule="nonzero"></path><path fill="#000000" d="M 216.390625 267.808594 C 211.648438 267.808594 207.789062 263.949219 207.789062 259.210938 C 207.789062 254.472656 211.648438 250.617188 216.390625 250.617188 C 221.132812 250.617188 224.992188 254.472656 224.992188 259.210938 C 224.992188 263.949219 221.132812 267.808594 216.390625 267.808594 Z M 216.390625 256.347656 C 214.8125 256.347656 213.523438 257.632812 213.523438 259.210938 C 213.523438 260.789062 214.8125 262.078125 216.390625 262.078125 C 217.976562 262.078125 219.257812 260.789062 219.257812 259.210938 C 219.257812 257.632812 217.976562 256.347656 216.390625 256.347656 Z M 216.390625 256.347656 " fill-opacity="1" fill-rule="nonzero"></path><path fill="#000000" d="M 227.859375 302.1875 L 210.65625 302.1875 C 209.070312 302.1875 207.789062 300.90625 207.789062 299.320312 C 207.789062 297.738281 209.070312 296.457031 210.65625 296.457031 L 227.859375 296.457031 C 229.445312 296.457031 230.726562 297.738281 230.726562 299.320312 C 230.726562 300.90625 229.445312 302.1875 227.859375 302.1875 Z M 227.859375 302.1875 " fill-opacity="1" fill-rule="nonzero"></path><path fill="#000000" d="M 250.796875 302.1875 L 242.195312 302.1875 C 240.609375 302.1875 239.328125 300.90625 239.328125 299.320312 C 239.328125 297.738281 240.609375 296.457031 242.195312 296.457031 L 250.796875 296.457031 C 252.382812 296.457031 253.664062 297.738281 253.664062 299.320312 C 253.664062 300.90625 252.382812 302.1875 250.796875 302.1875 Z M 250.796875 302.1875 " fill-opacity="1" fill-rule="nonzero"></path><path fill="#000000" d="M 176.25 307.917969 C 174.664062 307.917969 173.382812 306.636719 173.382812 305.050781 L 173.382812 244.886719 L 116.035156 244.886719 L 116.035156 305.050781 C 116.035156 306.636719 114.753906 307.917969 113.167969 307.917969 C 111.585938 307.917969 110.300781 306.636719 110.300781 305.050781 L 110.300781 242.023438 C 110.300781 240.4375 111.585938 239.15625 113.167969 239.15625 L 176.25 239.15625 C 177.832031 239.15625 179.117188 240.4375 179.117188 242.023438 L 179.117188 305.050781 C 179.117188 306.636719 177.832031 307.917969 176.25 307.917969 Z M 176.25 307.917969 " fill-opacity="1" fill-rule="nonzero"></path><path fill="#000000" d="M 176.25 290.726562 L 113.167969 290.726562 C 111.585938 290.726562 110.300781 289.445312 110.300781 287.863281 C 110.300781 286.277344 111.585938 284.996094 113.167969 284.996094 L 176.25 284.996094 C 177.832031 284.996094 179.117188 286.277344 179.117188 287.863281 C 179.117188 289.445312 177.832031 290.726562 176.25 290.726562 Z M 176.25 290.726562 " fill-opacity="1" fill-rule="nonzero"></path><path fill="#000000" d="M 176.253906 290.726562 C 175.382812 290.726562 174.519531 290.335938 173.957031 289.578125 L 159.046875 269.71875 L 144.136719 289.578125 C 143.191406 290.847656 141.394531 291.105469 140.121094 290.15625 C 138.855469 289.203125 138.597656 287.40625 139.550781 286.144531 L 156.753906 263.222656 C 157.835938 261.78125 160.261719 261.78125 161.339844 263.222656 L 178.542969 286.144531 C 179.496094 287.40625 179.238281 289.203125 177.96875 290.15625 C 177.453125 290.535156 176.855469 290.726562 176.253906 290.726562 Z M 176.253906 290.726562 " fill-opacity="1" fill-rule="nonzero"></path><path fill="#000000" d="M 124.640625 290.726562 C 124.011719 290.726562 123.378906 290.527344 122.847656 290.101562 C 121.613281 289.109375 121.414062 287.308594 122.398438 286.070312 L 133.867188 271.746094 C 134.417969 271.0625 135.238281 270.671875 136.109375 270.671875 C 136.980469 270.671875 137.804688 271.070312 138.347656 271.746094 L 146.859375 282.390625 C 147.851562 283.621094 147.652344 285.421875 146.414062 286.410156 C 145.175781 287.402344 143.367188 287.195312 142.378906 285.957031 L 136.109375 278.125 L 126.878906 289.652344 C 126.3125 290.359375 125.480469 290.726562 124.640625 290.726562 Z M 124.640625 290.726562 " fill-opacity="1" fill-rule="nonzero"></path><path fill="#000000" d="M 130.375 267.808594 C 125.628906 267.808594 121.773438 263.949219 121.773438 259.210938 C 121.773438 254.472656 125.628906 250.617188 130.375 250.617188 C 135.117188 250.617188 138.976562 254.472656 138.976562 259.210938 C 138.976562 263.949219 135.117188 267.808594 130.375 267.808594 Z M 130.375 256.347656 C 128.792969 256.347656 127.507812 257.632812 127.507812 259.210938 C 127.507812 260.789062 128.792969 262.078125 130.375 262.078125 C 131.957031 262.078125 133.242188 260.789062 133.242188 259.210938 C 133.242188 257.632812 131.957031 256.347656 130.375 256.347656 Z M 130.375 256.347656 " fill-opacity="1" fill-rule="nonzero"></path><path fill="#000000" d="M 141.84375 302.1875 L 124.640625 302.1875 C 123.054688 302.1875 121.773438 300.90625 121.773438 299.320312 C 121.773438 297.738281 123.054688 296.457031 124.640625 296.457031 L 141.84375 296.457031 C 143.425781 296.457031 144.710938 297.738281 144.710938 299.320312 C 144.710938 300.90625 143.425781 302.1875 141.84375 302.1875 Z M 141.84375 302.1875 " fill-opacity="1" fill-rule="nonzero"></path><path fill="#000000" d="M 164.78125 302.1875 L 156.179688 302.1875 C 154.59375 302.1875 153.308594 300.90625 153.308594 299.320312 C 153.308594 297.738281 154.59375 296.457031 156.179688 296.457031 L 164.78125 296.457031 C 166.363281 296.457031 167.648438 297.738281 167.648438 299.320312 C 167.648438 300.90625 166.363281 302.1875 164.78125 302.1875 Z M 164.78125 302.1875 " fill-opacity="1" fill-rule="nonzero"></path><path fill="#000000" d="M 84.496094 50.066406 C 82.914062 50.066406 81.628906 48.785156 81.628906 47.199219 L 81.628906 30.011719 C 81.628906 28.429688 82.914062 27.144531 84.496094 27.144531 C 86.082031 27.144531 87.363281 28.429688 87.363281 30.011719 L 87.363281 47.199219 C 87.363281 48.785156 86.082031 50.066406 84.496094 50.066406 Z M 84.496094 50.066406 " fill-opacity="1" fill-rule="nonzero"></path><path fill="#000000" d="M 290.9375 50.066406 C 289.355469 50.066406 288.070312 48.785156 288.070312 47.199219 L 288.070312 30.011719 C 288.070312 28.429688 289.355469 27.144531 290.9375 27.144531 C 292.523438 27.144531 293.804688 28.429688 293.804688 30.011719 L 293.804688 47.199219 C 293.804688 48.785156 292.523438 50.066406 290.9375 50.066406 Z M 290.9375 50.066406 " fill-opacity="1" fill-rule="nonzero"></path><path fill="#000000" d="M 279.46875 44.335938 L 95.964844 44.335938 C 94.382812 44.335938 93.097656 43.054688 93.097656 41.472656 C 93.097656 39.886719 94.382812 38.605469 95.964844 38.605469 L 279.46875 38.605469 C 281.054688 38.605469 282.335938 39.886719 282.335938 41.472656 C 282.335938 43.054688 281.054688 44.335938 279.46875 44.335938 Z M 279.46875 44.335938 " fill-opacity="1" fill-rule="nonzero"></path></svg>