<svg xmlns="http://www.w3.org/2000/svg" xmlns:xlink="http://www.w3.org/1999/xlink" width="500" viewBox="0 0 375 374.999991" height="500" preserveAspectRatio="xMidYMid meet"><defs><clipPath id="9a0a6bbeca"><path d="M 71 267.230469 L 141 267.230469 L 141 356.246094 L 71 356.246094 Z M 71 267.230469 " clip-rule="nonzero"></path></clipPath><clipPath id="80d4a7ca30"><path d="M 78 18.75 L 202 18.75 L 202 133 L 78 133 Z M 78 18.75 " clip-rule="nonzero"></path></clipPath><clipPath id="fdbe7b023a"><path d="M 332 270 L 366.988281 270 L 366.988281 296 L 332 296 Z M 332 270 " clip-rule="nonzero"></path></clipPath></defs><rect x="-37.5" width="450" fill="#ffffff" y="-37.499999" height="449.999989" fill-opacity="1"></rect><rect x="-37.5" width="450" fill="#ffffff" y="-37.499999" height="449.999989" fill-opacity="1"></rect><g clip-path="url(#9a0a6bbeca)"><path fill="#000000" d="M 116.777344 356.246094 C 114.878906 356.246094 112.976562 355.945312 111.121094 355.34375 C 106.488281 353.839844 102.714844 350.617188 100.503906 346.269531 L 71.648438 289.597656 C 70.414062 287.171875 71.378906 284.207031 73.800781 282.972656 C 76.222656 281.734375 79.191406 282.699219 80.425781 285.125 L 109.277344 341.796875 C 110.296875 343.796875 112.03125 345.277344 114.164062 345.972656 C 116.296875 346.664062 118.570312 346.488281 120.566406 345.46875 L 126.410156 342.488281 C 128.40625 341.46875 129.890625 339.734375 130.582031 337.597656 C 131.273438 335.464844 131.097656 333.191406 130.078125 331.191406 L 101.222656 274.515625 C 99.988281 272.09375 100.953125 269.125 103.375 267.890625 C 105.796875 266.65625 108.761719 267.617188 109.996094 270.042969 L 138.851562 326.714844 C 141.0625 331.0625 141.453125 336.007812 139.949219 340.644531 C 138.441406 345.28125 135.222656 349.054688 130.878906 351.269531 L 125.039062 354.25 C 122.433594 355.578125 119.617188 356.246094 116.777344 356.246094 " fill-opacity="1" fill-rule="nonzero"></path></g><path fill="#000000" d="M 38.050781 239.1875 L 63.117188 288.417969 L 114.058594 262.441406 L 88.992188 213.210938 Z M 60.96875 299.976562 C 59.175781 299.976562 57.449219 298.992188 56.578125 297.285156 L 27.042969 239.269531 C 26.449219 238.105469 26.339844 236.753906 26.746094 235.507812 C 27.148438 234.265625 28.03125 233.234375 29.191406 232.640625 L 88.910156 202.191406 C 91.332031 200.957031 94.296875 201.921875 95.53125 204.34375 L 125.070312 262.359375 C 125.660156 263.523438 125.769531 264.875 125.363281 266.121094 C 124.960938 267.359375 124.082031 268.394531 122.917969 268.984375 L 63.203125 299.4375 C 62.484375 299.800781 61.722656 299.976562 60.96875 299.976562 " fill-opacity="1" fill-rule="nonzero"></path><path fill="#000000" d="M 31.382812 301.25 C 29.589844 301.25 27.863281 300.265625 26.992188 298.558594 L 8.621094 262.472656 C 8.027344 261.308594 7.921875 259.957031 8.324219 258.714844 C 8.730469 257.472656 9.609375 256.4375 10.773438 255.84375 L 34.777344 243.605469 C 37.199219 242.371094 40.164062 243.335938 41.398438 245.761719 C 42.632812 248.183594 41.667969 251.152344 39.246094 252.386719 L 19.632812 262.390625 L 33.53125 289.691406 L 53.148438 279.691406 C 55.570312 278.453125 58.535156 279.417969 59.769531 281.84375 C 61.003906 284.269531 60.039062 287.234375 57.617188 288.472656 L 33.617188 300.710938 C 32.898438 301.074219 32.136719 301.25 31.382812 301.25 " fill-opacity="1" fill-rule="nonzero"></path><path fill="#000000" d="M 120.675781 269.519531 C 118.308594 269.519531 116.222656 267.8125 115.824219 265.402344 C 115.375 262.71875 117.1875 260.179688 119.871094 259.734375 L 194.992188 247.214844 L 148.875 156.636719 L 94.601562 210.097656 C 92.660156 212.007812 89.542969 211.980469 87.636719 210.042969 C 85.730469 208.101562 85.753906 204.984375 87.691406 203.074219 L 146.753906 144.894531 C 147.875 143.792969 149.449219 143.289062 151 143.542969 C 152.546875 143.792969 153.882812 144.769531 154.597656 146.167969 L 206.816406 248.734375 C 207.53125 250.132812 207.535156 251.789062 206.828125 253.191406 C 206.121094 254.59375 204.785156 255.574219 203.238281 255.832031 L 121.488281 269.453125 C 121.214844 269.5 120.941406 269.519531 120.675781 269.519531 " fill-opacity="1" fill-rule="nonzero"></path><path fill="#000000" d="M 186.136719 223.90625 C 183.683594 223.90625 181.558594 222.074219 181.253906 219.574219 C 180.925781 216.875 182.847656 214.417969 185.546875 214.085938 C 187.269531 213.878906 188.9375 213.367188 190.5 212.570312 C 194.066406 210.75 196.695312 207.648438 197.90625 203.828125 C 199.117188 200.011719 198.753906 195.957031 196.886719 192.410156 C 193.257812 185.527344 184.574219 182.589844 177.527344 185.867188 C 175.761719 186.6875 174.199219 187.820312 172.890625 189.230469 C 171.035156 191.21875 167.921875 191.332031 165.929688 189.476562 C 163.941406 187.621094 163.828125 184.503906 165.683594 182.515625 C 167.863281 180.167969 170.453125 178.289062 173.378906 176.929688 C 179.113281 174.261719 185.605469 173.917969 191.652344 175.964844 C 197.695312 178.007812 202.644531 182.214844 205.597656 187.816406 C 208.703125 193.714844 209.304688 200.460938 207.292969 206.808594 C 205.277344 213.160156 200.902344 218.324219 194.96875 221.351562 C 192.378906 222.671875 189.609375 223.519531 186.738281 223.871094 C 186.535156 223.894531 186.335938 223.90625 186.136719 223.90625 " fill-opacity="1" fill-rule="nonzero"></path><path fill="#000000" d="M 224.015625 183.746094 C 222.226562 183.746094 220.496094 182.761719 219.625 181.054688 C 218.390625 178.628906 219.355469 175.660156 221.777344 174.425781 L 237.164062 166.582031 C 239.585938 165.347656 242.550781 166.308594 243.785156 168.734375 C 245.019531 171.160156 244.054688 174.125 241.632812 175.363281 L 226.25 183.207031 C 225.53125 183.574219 224.769531 183.746094 224.015625 183.746094 " fill-opacity="1" fill-rule="nonzero"></path><path fill="#000000" d="M 193.496094 158.21875 C 192.992188 158.21875 192.480469 158.140625 191.972656 157.976562 C 189.386719 157.136719 187.972656 154.355469 188.8125 151.769531 L 194.148438 135.335938 C 194.988281 132.746094 197.765625 131.332031 200.351562 132.171875 C 202.9375 133.011719 204.351562 135.792969 203.511719 138.378906 L 198.179688 154.8125 C 197.503906 156.894531 195.570312 158.21875 193.496094 158.21875 " fill-opacity="1" fill-rule="nonzero"></path><path fill="#000000" d="M 243.980469 228.730469 C 243.472656 228.730469 242.960938 228.652344 242.457031 228.488281 L 226.035156 223.148438 C 223.449219 222.304688 222.035156 219.527344 222.875 216.9375 C 223.714844 214.351562 226.492188 212.933594 229.078125 213.773438 L 245.5 219.113281 C 248.085938 219.957031 249.5 222.734375 248.660156 225.324219 C 247.984375 227.40625 246.054688 228.730469 243.980469 228.730469 " fill-opacity="1" fill-rule="nonzero"></path><path fill="#000000" d="M 249.058594 141.863281 L 352.292969 141.863281 L 352.292969 75.820312 L 249.058594 75.820312 Z M 357.214844 151.71875 L 244.132812 151.71875 C 241.417969 151.71875 239.210938 149.511719 239.210938 146.789062 L 239.210938 70.894531 C 239.210938 68.171875 241.417969 65.964844 244.132812 65.964844 L 357.214844 65.964844 C 359.9375 65.964844 362.140625 68.171875 362.140625 70.894531 L 362.140625 146.789062 C 362.140625 149.511719 359.9375 151.71875 357.214844 151.71875 " fill-opacity="1" fill-rule="nonzero"></path><path fill="#000000" d="M 300.695312 127.941406 L 300.65625 127.941406 C 299.417969 127.941406 298.230469 127.476562 297.320312 126.636719 L 240.800781 74.515625 C 238.800781 72.671875 238.671875 69.554688 240.515625 67.554688 C 242.355469 65.550781 245.472656 65.425781 247.472656 67.269531 L 300.675781 116.332031 L 353.878906 67.269531 C 355.878906 65.425781 358.996094 65.550781 360.835938 67.554688 C 362.679688 69.554688 362.554688 72.671875 360.554688 74.515625 L 304.03125 126.636719 C 303.125 127.476562 301.933594 127.941406 300.695312 127.941406 " fill-opacity="1" fill-rule="nonzero"></path><path fill="#000000" d="M 357.210938 151.71875 C 356.199219 151.71875 355.175781 151.40625 354.300781 150.757812 L 308.523438 117.074219 C 306.335938 115.460938 305.867188 112.378906 307.476562 110.183594 C 309.085938 107.992188 312.167969 107.523438 314.359375 109.132812 L 360.132812 142.820312 C 362.324219 144.433594 362.792969 147.515625 361.183594 149.707031 C 360.21875 151.023438 358.722656 151.71875 357.210938 151.71875 " fill-opacity="1" fill-rule="nonzero"></path><path fill="#000000" d="M 244.140625 151.71875 C 242.628906 151.71875 241.132812 151.023438 240.167969 149.707031 C 238.558594 147.515625 239.027344 144.433594 241.21875 142.820312 L 286.992188 109.132812 C 289.183594 107.523438 292.265625 107.992188 293.878906 110.183594 C 295.488281 112.378906 295.015625 115.460938 292.828125 117.074219 L 247.054688 150.757812 C 246.175781 151.40625 245.152344 151.71875 244.140625 151.71875 " fill-opacity="1" fill-rule="nonzero"></path><g clip-path="url(#80d4a7ca30)"><path fill="#000000" d="M 95.277344 28.605469 C 91.285156 28.605469 88.039062 31.851562 88.039062 35.84375 L 88.039062 88.183594 C 88.039062 92.175781 91.285156 95.425781 95.277344 95.425781 L 105.464844 95.425781 C 107.222656 95.425781 108.847656 96.363281 109.730469 97.886719 L 121.4375 118.183594 L 133.148438 97.886719 C 134.027344 96.363281 135.652344 95.425781 137.410156 95.425781 L 184.039062 95.425781 C 188.027344 95.425781 191.273438 92.175781 191.273438 88.183594 L 191.273438 35.84375 C 191.273438 31.851562 188.027344 28.605469 184.039062 28.605469 Z M 121.4375 132.964844 C 119.679688 132.964844 118.054688 132.027344 117.175781 130.503906 L 102.621094 105.277344 L 95.277344 105.277344 C 85.855469 105.277344 78.191406 97.609375 78.191406 88.183594 L 78.191406 35.84375 C 78.191406 26.417969 85.855469 18.75 95.277344 18.75 L 184.039062 18.75 C 193.457031 18.75 201.121094 26.417969 201.121094 35.84375 L 201.121094 88.183594 C 201.121094 97.609375 193.457031 105.277344 184.039062 105.277344 L 140.253906 105.277344 L 125.703125 130.503906 C 124.820312 132.027344 123.199219 132.964844 121.4375 132.964844 " fill-opacity="1" fill-rule="nonzero"></path></g><path fill="#000000" d="M 110.097656 59.015625 C 108.441406 59.015625 107.097656 60.359375 107.097656 62.015625 C 107.097656 63.667969 108.441406 65.015625 110.097656 65.015625 C 111.75 65.015625 113.09375 63.667969 113.09375 62.015625 C 113.09375 60.359375 111.75 59.015625 110.097656 59.015625 Z M 110.097656 74.871094 C 103.011719 74.871094 97.25 69.101562 97.25 62.015625 C 97.25 54.925781 103.011719 49.160156 110.097656 49.160156 C 117.179688 49.160156 122.941406 54.925781 122.941406 62.015625 C 122.941406 69.101562 117.179688 74.871094 110.097656 74.871094 " fill-opacity="1" fill-rule="nonzero"></path><path fill="#000000" d="M 139.65625 59.015625 C 138.003906 59.015625 136.660156 60.359375 136.660156 62.015625 C 136.660156 63.667969 138.003906 65.015625 139.65625 65.015625 C 141.308594 65.015625 142.65625 63.667969 142.65625 62.015625 C 142.65625 60.359375 141.308594 59.015625 139.65625 59.015625 Z M 139.65625 74.871094 C 132.574219 74.871094 126.8125 69.101562 126.8125 62.015625 C 126.8125 54.925781 132.574219 49.160156 139.65625 49.160156 C 146.742188 49.160156 152.503906 54.925781 152.503906 62.015625 C 152.503906 69.101562 146.742188 74.871094 139.65625 74.871094 " fill-opacity="1" fill-rule="nonzero"></path><path fill="#000000" d="M 169.21875 59.015625 C 167.566406 59.015625 166.222656 60.359375 166.222656 62.015625 C 166.222656 63.667969 167.566406 65.015625 169.21875 65.015625 C 170.871094 65.015625 172.21875 63.667969 172.21875 62.015625 C 172.21875 60.359375 170.871094 59.015625 169.21875 59.015625 Z M 169.21875 74.871094 C 162.136719 74.871094 156.375 69.101562 156.375 62.015625 C 156.375 54.925781 162.136719 49.160156 169.21875 49.160156 C 176.300781 49.160156 182.0625 54.925781 182.0625 62.015625 C 182.0625 69.101562 176.300781 74.871094 169.21875 74.871094 " fill-opacity="1" fill-rule="nonzero"></path><g clip-path="url(#fdbe7b023a)"><path fill="#000000" d="M 354.03125 295.773438 L 337.082031 295.773438 C 334.367188 295.773438 332.160156 293.5625 332.160156 290.84375 C 332.160156 288.125 334.367188 285.917969 337.082031 285.917969 L 354.03125 285.917969 C 355.648438 285.917969 356.960938 284.601562 356.960938 282.984375 C 356.960938 281.371094 355.648438 280.054688 354.03125 280.054688 C 351.3125 280.054688 349.109375 277.847656 349.109375 275.128906 C 349.109375 272.40625 351.3125 270.199219 354.03125 270.199219 C 361.074219 270.199219 366.808594 275.9375 366.808594 282.984375 C 366.808594 290.035156 361.074219 295.773438 354.03125 295.773438 " fill-opacity="1" fill-rule="nonzero"></path></g><path fill="#000000" d="M 352.136719 311.488281 L 335.03125 311.488281 C 332.3125 311.488281 330.109375 309.28125 330.109375 306.5625 C 330.109375 303.839844 332.3125 301.632812 335.03125 301.632812 L 352.136719 301.632812 C 353.753906 301.632812 355.066406 300.320312 355.066406 298.703125 C 355.066406 297.085938 353.753906 295.773438 352.136719 295.773438 C 349.417969 295.773438 347.214844 293.5625 347.214844 290.84375 C 347.214844 288.125 349.417969 285.917969 352.136719 285.917969 C 359.183594 285.917969 364.914062 291.652344 364.914062 298.703125 C 364.914062 305.753906 359.183594 311.488281 352.136719 311.488281 " fill-opacity="1" fill-rule="nonzero"></path><path fill="#000000" d="M 314.238281 327.226562 C 310.710938 327.226562 306.980469 326.980469 302.902344 326.480469 C 298.492188 325.9375 294.195312 325.324219 290.027344 323.761719 C 288.351562 323.136719 286.648438 322.273438 284.816406 321.132812 C 284.597656 320.996094 284.378906 320.855469 284.160156 320.71875 C 283.152344 320.082031 282.28125 319.527344 281.480469 319.269531 C 281.292969 319.234375 280.769531 319.25 280.382812 319.257812 C 280.148438 319.265625 279.914062 319.273438 279.675781 319.273438 L 276.105469 319.300781 C 276.09375 319.300781 276.078125 319.300781 276.066406 319.300781 C 273.367188 319.300781 271.164062 317.121094 271.144531 314.414062 C 271.125 311.691406 273.308594 309.472656 276.027344 309.445312 L 279.597656 309.417969 C 279.773438 309.417969 279.953125 309.414062 280.128906 309.40625 C 281.234375 309.378906 282.746094 309.339844 284.398438 309.859375 C 286.445312 310.5 288.03125 311.507812 289.433594 312.398438 C 289.632812 312.519531 289.832031 312.648438 290.03125 312.773438 C 291.3125 313.574219 292.40625 314.132812 293.476562 314.53125 C 296.640625 315.714844 300.160156 316.214844 304.101562 316.699219 C 308.445312 317.230469 312.308594 317.449219 315.917969 317.351562 C 315.988281 317.347656 316.058594 317.347656 316.132812 317.347656 L 348.335938 317.347656 C 349.953125 317.347656 351.265625 316.035156 351.265625 314.417969 C 351.265625 312.800781 349.953125 311.488281 348.335938 311.488281 C 345.617188 311.488281 343.414062 309.28125 343.414062 306.5625 C 343.414062 303.839844 345.617188 301.632812 348.335938 301.632812 C 355.382812 301.632812 361.113281 307.367188 361.113281 314.417969 C 361.113281 321.46875 355.382812 327.203125 348.335938 327.203125 L 316.085938 327.203125 C 315.476562 327.222656 314.863281 327.226562 314.238281 327.226562 " fill-opacity="1" fill-rule="nonzero"></path><path fill="#000000" d="M 351 280.054688 L 338.109375 280.054688 C 335.390625 280.054688 333.1875 277.847656 333.1875 275.128906 C 333.1875 272.40625 335.390625 270.199219 338.109375 270.199219 L 351 270.199219 C 352.613281 270.199219 353.929688 268.886719 353.929688 267.269531 C 353.929688 265.652344 352.613281 264.339844 351 264.339844 L 317.8125 264.339844 C 315.089844 264.339844 312.886719 262.132812 312.886719 259.410156 C 312.886719 256.152344 313.566406 253.042969 314.910156 250.164062 C 315.472656 248.964844 316.058594 247.808594 316.625 246.691406 C 317.714844 244.542969 318.742188 242.511719 319.464844 240.417969 C 321.175781 235.472656 322.578125 228.425781 319.625 222.8125 C 319.601562 222.78125 319.574219 222.742188 319.542969 222.703125 C 318.785156 221.683594 317.800781 220.914062 316.914062 220.640625 C 316.054688 220.378906 314.914062 220.527344 314.394531 221.324219 C 314.148438 221.703125 314.199219 222.929688 314.222656 223.589844 C 314.328125 226.191406 314.222656 228.539062 313.894531 230.773438 C 313.21875 235.347656 311.832031 239.414062 309.765625 242.875 C 309.644531 243.261719 309.472656 243.640625 309.253906 244.003906 C 309.121094 244.214844 308.277344 245.578125 306.8125 247.5625 C 306.738281 247.660156 306.679688 247.746094 306.628906 247.8125 C 306.578125 247.878906 306.527344 247.945312 306.476562 248.011719 C 301.589844 254.519531 290.671875 266.800781 276.699219 268.613281 C 274 268.960938 271.535156 267.058594 271.183594 264.359375 C 270.835938 261.660156 272.738281 259.1875 275.433594 258.839844 C 282.621094 257.90625 289.101562 252.609375 293.273438 248.324219 C 295.390625 246.152344 297.128906 244.03125 298.40625 242.347656 C 298.421875 242.320312 298.4375 242.292969 298.457031 242.265625 C 298.550781 242.105469 298.707031 241.859375 298.929688 241.511719 C 299.355469 240.847656 300.03125 239.804688 300.9375 238.414062 C 302.542969 235.960938 303.625 232.90625 304.152344 229.335938 C 304.386719 227.71875 304.464844 225.96875 304.386719 223.992188 C 304.289062 221.558594 304.332031 218.726562 306.140625 215.945312 C 308.988281 211.574219 314.605469 209.628906 319.792969 211.21875 C 322.703125 212.105469 325.417969 214.097656 327.445312 216.820312 C 327.644531 217.09375 327.820312 217.34375 327.976562 217.585938 C 328.042969 217.6875 328.105469 217.789062 328.164062 217.894531 C 331.976562 224.867188 332.183594 233.769531 328.773438 243.644531 C 327.828125 246.371094 326.597656 248.800781 325.40625 251.148438 C 324.847656 252.246094 324.324219 253.28125 323.832031 254.332031 C 323.808594 254.386719 323.789062 254.433594 323.765625 254.484375 L 351 254.484375 C 358.042969 254.484375 363.777344 260.21875 363.777344 267.269531 C 363.777344 274.320312 358.042969 280.054688 351 280.054688 " fill-opacity="1" fill-rule="nonzero"></path><path fill="#000000" d="M 253.726562 316.691406 L 271.144531 316.691406 L 271.144531 261.824219 L 253.726562 261.824219 Z M 276.066406 326.546875 L 248.804688 326.546875 C 246.085938 326.546875 243.882812 324.339844 243.882812 321.617188 L 243.882812 256.898438 C 243.882812 254.175781 246.085938 251.972656 248.804688 251.972656 L 276.066406 251.972656 C 278.789062 251.972656 280.992188 254.175781 280.992188 256.898438 L 280.992188 321.617188 C 280.992188 324.339844 278.789062 326.546875 276.066406 326.546875 " fill-opacity="1" fill-rule="nonzero"></path></svg>