<svg xmlns="http://www.w3.org/2000/svg" width="500" height="500" viewBox="0 0 375 375"><defs><clipPath id="a"><path d="M35.45 8.09H339.2v358.5H35.45Zm0 0"></path></clipPath></defs><path d="M173.875 308.648c.559 0 1.113-.054 1.66-.16a8.391 8.391 0 0 0 1.598-.488 8.317 8.317 0 0 0 1.472-.785 8.638 8.638 0 0 0 1.293-1.059 8.84 8.84 0 0 0 1.059-1.293 8.2 8.2 0 0 0 .785-1.472 8.478 8.478 0 0 0-.785-7.993 8.404 8.404 0 0 0-1.059-1.293 8.373 8.373 0 0 0-1.289-1.058 8.504 8.504 0 0 0-3.074-1.273 8.454 8.454 0 0 0-3.32 0 8.38 8.38 0 0 0-1.598.484 8.335 8.335 0 0 0-1.472.789 8.404 8.404 0 0 0-2.352 2.351 8.07 8.07 0 0 0-.785 1.473 8.392 8.392 0 0 0-.488 1.598 8.759 8.759 0 0 0 0 3.324c.109.547.273 1.082.488 1.598a8.456 8.456 0 0 0 1.844 2.761 8.429 8.429 0 0 0 2.761 1.848 8.554 8.554 0 0 0 3.262.648ZM157.629 29.164h33.414v6.254h-33.414ZM126.914 223.094c0 .472-.047.941-.137 1.406a7.43 7.43 0 0 1-.41 1.355 7.49 7.49 0 0 1-.668 1.247 7.081 7.081 0 0 1-.898 1.093 7.122 7.122 0 0 1-2.34 1.563c-.438.183-.887.32-1.352.41a7.105 7.105 0 0 1-2.816 0 6.828 6.828 0 0 1-1.352-.41 7.23 7.23 0 0 1-1.25-.664 7.517 7.517 0 0 1-1.093-.899 7.288 7.288 0 0 1-1.563-2.34 7.43 7.43 0 0 1-.41-1.355 7.092 7.092 0 0 1-.137-1.406 7.102 7.102 0 0 1 .547-2.762 7.248 7.248 0 0 1 1.563-2.344 7.49 7.49 0 0 1 1.093-.894 6.99 6.99 0 0 1 1.25-.668c.438-.18.887-.32 1.352-.41a7.096 7.096 0 0 1 2.816 0c.465.09.914.23 1.352.41.437.18.855.402 1.246.668.395.261.762.562 1.094.894.336.336.636.7.898 1.094.262.395.485.813.668 1.25.18.438.317.887.41 1.352.09.464.137.933.137 1.41ZM223.496 149.41h62.45v8.14h-62.45Zm0 0"></path><g clip-path="url(#a)"><path d="M324.352 87.457h-63.2V32.313c0-13.356-12.195-24.223-27.187-24.223H113.652c-14.992 0-27.191 10.867-27.191 24.223v101.585a20.067 20.067 0 0 0-2.926 2.34c-.035 0-.074-.008-.11-.008-10.124 0-18.612 8.196-20.62 19.075h-7.203l-.305 7.57H39.332l-3.766 94.406h50.895v39.707c0 13.356 12.2 24.223 27.191 24.223h71.977a156.581 156.581 0 0 0 19.324 13.457v31.8h6.254v-35.425l-1.586-.898c-.101-.06-6.652-3.774-13.773-8.934h38.117c4.87.023 9.469-1.098 13.785-3.356a41.599 41.599 0 0 0 1.965 2.336l9.39 10.293 4.614-4.214-9.387-10.293a34.781 34.781 0 0 1-1.406-1.645 49.375 49.375 0 0 1-3.586-5.156c-5.973-9.727-9.73-21.664-9.774-21.813l-.12-.37-1.958-3.192-3.82-6.25-3.356-5.48-3.828-6.25-30.183-49.301a9.32 9.32 0 0 1-.801-1.665 9.696 9.696 0 0 1-.473-1.785 9.73 9.73 0 0 1-.117-1.843c.02-.622.098-1.23.238-1.832a9.426 9.426 0 0 1 .582-1.754 9.74 9.74 0 0 1 2.11-3.016c.445-.43.93-.813 1.45-1.148l2.487-1.704a11.308 11.308 0 0 1 4.102-1.714c1.476-.301 2.96-.309 4.441-.024 1.414.254 2.727.77 3.934 1.55a10.57 10.57 0 0 1 3.023 2.954l24.637 36.637 2.774 4.125.863 1.273 1.531.102c.344.02.703.05 1.078.078 1.973.168 4.336.469 6.738.894 2.114.364 4.2.852 6.254 1.461 2.602.778 4.836 1.743 6.141 2.887l4.121-4.71c-2.469-2.165-6.34-3.661-10.262-4.688v-57.805l39.075 57.527-4.157 124.043 6.25.211 4.227-126.078-44.918-66.133h62.723c.968 0 1.93-.093 2.878-.285.95-.191 1.872-.469 2.766-.84a14.926 14.926 0 0 0 2.547-1.367c.809-.539 1.55-1.148 2.234-1.836a14.674 14.674 0 0 0 3.2-4.785c.37-.895.652-1.816.84-2.77.19-.949.285-1.906.285-2.875v-57.394c0-.969-.098-1.926-.286-2.879a14.861 14.861 0 0 0-.84-2.766 14.852 14.852 0 0 0-3.2-4.785 14.795 14.795 0 0 0-10.424-4.324ZM92.719 32.313c0-9.91 9.386-17.97 20.933-17.97h120.313c11.543 0 20.933 8.06 20.933 17.97v55.144h-6.738V39.309H98.32v91.828a17.58 17.58 0 0 0-2.218-.14c-1.141 0-2.27.108-3.383.331Zm29.37 40.05 1.192-4.554 1.313-5.024h69.984l1.844 5.024 1.668 4.554Zm60.528 6.254v8.727c0 2.062-2.285 3.816-4.988 3.816-2.7 0-4.992-1.754-4.992-3.816v-8.727Zm-17.14 0v8.727c0 2.062-2.286 3.816-4.989 3.816-2.699 0-4.984-1.754-4.984-3.816v-8.727Zm-17.133 0v8.727c0 2.062-2.285 3.816-4.992 3.816-2.711 0-4.989-1.754-4.989-3.816v-8.727Zm-17.14 0v8.719c0 2.07-2.286 3.816-4.985 3.816a5.838 5.838 0 0 1-2.746-.66 3.665 3.665 0 0 1-1.567-1.262 3.672 3.672 0 0 1-.676-1.894v-8.719Zm-7.731 19.344c.906.191 1.82.285 2.746.285a12.573 12.573 0 0 0 4.582-.816 12.61 12.61 0 0 0 3.984-2.41 11.88 11.88 0 0 0 3.848 2.359c1.52.586 3.09.879 4.719.875 1.578.012 3.109-.262 4.585-.82a12.607 12.607 0 0 0 3.985-2.414c.59.515 1.219.976 1.887 1.378a12.947 12.947 0 0 0 6.68 1.855 12.903 12.903 0 0 0 4.577-.835 13.08 13.08 0 0 0 2.106-1.02 13.007 13.007 0 0 0 1.883-1.378 12.986 12.986 0 0 0 4.011 2.406c.739.277 1.493.484 2.266.62.773.141 1.55.208 2.34.208a13.034 13.034 0 0 0 4.598-.863 12.99 12.99 0 0 0 2.105-1.036c.672-.41 1.3-.878 1.887-1.402h.004a12.631 12.631 0 0 0 4.007 2.461c1.489.566 3.032.844 4.625.832.348 0 .688-.016 1.028-.043v21.875h-72.453Zm71.425-6.809c-2.703 0-4.984-1.746-4.984-3.816v-8.719h9.977v8.719c0 1.8-1.73 3.355-3.965 3.73-.34.059-.684.086-1.028.086ZM92.718 137.77a11.146 11.146 0 0 1 5.602-.297 12.091 12.091 0 0 1 6.254 3.46 17.238 17.238 0 0 1 3.598 5.669 17.15 17.15 0 0 1 1.187 6.609v2.094h-5.296c-1.43-7.73-6.133-14.102-12.376-17.145.336-.14.684-.277 1.032-.39Zm-9.878 15.44c-.02-1.862.25-3.687.805-5.468a17.709 17.709 0 0 1 2.44-4.957c5.548 1.215 10.028 6.121 11.583 12.52H82.84Zm-4.262-9.745a24.388 24.388 0 0 0-1.988 9.746v2.094h-7.403c1.34-5.532 4.872-9.957 9.391-11.84Zm-17.27 25.664.255-6.254.05-1.32H76.59v10.015a3.118 3.118 0 0 0 .918 2.207c.293.293.629.52 1.012.676.382.16.78.238 1.195.238.414 0 .812-.078 1.195-.238a3.047 3.047 0 0 0 1.012-.676 3.118 3.118 0 0 0 .918-2.207v-10.015h26.52v11.476a3.118 3.118 0 0 0 .918 2.21c.292.294.628.52 1.015.68.383.161.781.24 1.195.24a3.135 3.135 0 0 0 2.21-.918 3.118 3.118 0 0 0 .92-2.212v-11.476h14.054l4.777 74.175H58.656ZM42.07 251.023l3.27-81.894h9.707l-2.899 72.86h73.047l.582 9.034Zm188.094 32.778 3.55 5.804c.727 2.262 4.497 13.493 10.442 23.075a23.291 23.291 0 0 1-10.191 2.277H113.652c-11.547 0-20.933-8.059-20.933-17.969v-13.187Zm-3.824-6.25H92.719v-20.27h5.601v14.79h124.66Zm28.558-36.254a82.66 82.66 0 0 0-5.863-.742l-.875-1.301v-64.89h6.738Zm77.95-81.692a8.444 8.444 0 0 1-.649 3.25 8.581 8.581 0 0 1-1.84 2.758 8.606 8.606 0 0 1-1.289 1.059c-.465.308-.953.57-1.468.785a8.429 8.429 0 0 1-1.594.484 8.419 8.419 0 0 1-1.656.168H223.695c-.558 0-1.11-.058-1.656-.168a8.429 8.429 0 0 1-1.594-.484 8.692 8.692 0 0 1-1.468-.785 8.606 8.606 0 0 1-2.344-2.348 8.692 8.692 0 0 1-.785-1.469 8.444 8.444 0 0 1-.648-3.25v-19.488h117.648Zm0-25.738H215.199v-31.656c0-.559.055-1.11.164-1.656a8.632 8.632 0 0 1 1.27-3.067c.312-.46.664-.89 1.058-1.285.395-.394.825-.75 1.286-1.058a8.167 8.167 0 0 1 1.468-.786 8.44 8.44 0 0 1 3.25-.652h100.657a8.415 8.415 0 0 1 3.25.652c.515.211 1.003.473 1.468.786.465.308.895.664 1.29 1.058.39.395.745.824 1.054 1.285.309.465.57.957.785 1.473.215.512.375 1.047.485 1.594.109.547.164 1.097.164 1.656Zm0 0"></path></g><path d="M242.91 100.934h-12.504a8.158 8.158 0 0 0-3.136.629 7.85 7.85 0 0 0-1.418.757 8.218 8.218 0 0 0-3.488 5.215 8.154 8.154 0 0 0-.157 1.602v12.508a8.115 8.115 0 0 0 .625 3.136c.207.496.457.969.758 1.418a8.218 8.218 0 0 0 5.215 3.488 8.154 8.154 0 0 0 1.601.157h12.504a8.115 8.115 0 0 0 3.137-.625 8.218 8.218 0 0 0 5.063-7.574v-12.508a8.158 8.158 0 0 0-.63-3.137 7.72 7.72 0 0 0-.757-1.418 7.773 7.773 0 0 0-1.02-1.242 7.774 7.774 0 0 0-1.242-1.02 8.227 8.227 0 0 0-4.55-1.387Zm1.945 20.714c0 .258-.046.504-.148.743-.098.238-.238.449-.422.632-.183.184-.39.325-.629.422a1.885 1.885 0 0 1-.746.149h-12.504c-.261 0-.508-.047-.75-.149a1.985 1.985 0 0 1-1.055-1.055 1.956 1.956 0 0 1-.148-.745v-12.508c0-.258.05-.508.149-.746a1.985 1.985 0 0 1 1.054-1.055c.239-.098.489-.148.746-.148h12.504c.258 0 .508.05.746.148a1.979 1.979 0 0 1 1.055 1.055c.098.238.148.488.148.746ZM287.156 124.36h6.18v6.183h-6.18ZM303.566 124.36h6.184v6.183h-6.184ZM311.773 124.36h6.18v6.183h-6.18ZM319.977 124.36h6.183v6.183h-6.183ZM295.363 124.36h6.18v6.183h-6.18ZM305.113 163.035a9.62 9.62 0 0 0 3.352-.594 9.65 9.65 0 0 0 2.941-1.707c.461.418.961.79 1.492 1.114a9.865 9.865 0 0 0 3.48 1.285 9.857 9.857 0 0 0 3.708-.102c.61-.136 1.2-.328 1.77-.578a9.619 9.619 0 0 0 3.062-2.094 9.762 9.762 0 0 0 2.063-3.082c.242-.574.43-1.168.558-1.777a9.5 9.5 0 0 0 .207-1.852 9.578 9.578 0 0 0-.144-1.859 9.644 9.644 0 0 0-1.32-3.465 9.89 9.89 0 0 0-1.126-1.484 10.001 10.001 0 0 0-1.39-1.242 9.718 9.718 0 0 0-3.348-1.594 9.811 9.811 0 0 0-3.703-.23 9.724 9.724 0 0 0-3.52 1.164 9.624 9.624 0 0 0-1.53 1.058 9.352 9.352 0 0 0-.927-.738 9.602 9.602 0 0 0-3.21-1.48 9.725 9.725 0 0 0-1.165-.227 9.158 9.158 0 0 0-1.18-.078 9.867 9.867 0 0 0-2.352.266c-.382.093-.76.206-1.132.343a9.908 9.908 0 0 0-2.097 1.086c-.329.223-.641.465-.938.727a9.417 9.417 0 0 0-1.578 1.761c-.227.324-.434.66-.617 1.008a9.539 9.539 0 0 0-.848 2.207 10.036 10.036 0 0 0-.297 2.348 10.023 10.023 0 0 0 .278 2.347c.093.387.21.762.351 1.133.137.371.3.73.485 1.082a9.805 9.805 0 0 0 1.336 1.95 9.93 9.93 0 0 0 2.78 2.183 10.23 10.23 0 0 0 2.21.84 9.827 9.827 0 0 0 2.35.281Zm9.684-11.113c.121-.234.262-.457.43-.664.168-.207.359-.39.566-.555a3.627 3.627 0 0 1 1.426-.664c.261-.055.523-.082.789-.078a3.546 3.546 0 0 1 2.742 1.375c.164.21.3.437.41.676a3.556 3.556 0 0 1 .223 2.328 3.567 3.567 0 0 1-1.281 1.953c-.215.16-.438.297-.68.406a3.7 3.7 0 0 1-.754.246 3.574 3.574 0 0 1-1.574-.035 3.628 3.628 0 0 1-.742-.281 3.65 3.65 0 0 1-.66-.438 3.597 3.597 0 0 1-.95-1.254 9.8 9.8 0 0 0 .156-1.69 9.447 9.447 0 0 0-.101-1.325Zm-9.684-2.211a3.464 3.464 0 0 1 1.91.57 3.446 3.446 0 0 1 1.301 1.512 8.961 8.961 0 0 0-.054 3.012 3.516 3.516 0 0 1-1.782 1.683 3.507 3.507 0 0 1-1.21.278 3.541 3.541 0 0 1-2.336-.738 3.555 3.555 0 0 1-1.293-2.086 3.491 3.491 0 0 1-.028-1.243c.067-.418.2-.808.406-1.176a3.5 3.5 0 0 1 1.86-1.594 3.545 3.545 0 0 1 1.226-.218Zm0 0"></path></svg>