<svg xmlns="http://www.w3.org/2000/svg" xmlns:xlink="http://www.w3.org/1999/xlink" width="500" viewBox="0 0 375 374.999991" height="500" preserveAspectRatio="xMidYMid meet"><defs><clipPath id="a18b765f76"><path d="M 10 13.160156 L 365.328125 13.160156 L 365.328125 361.910156 L 10 361.910156 Z M 10 13.160156 " clip-rule="nonzero"></path></clipPath></defs><rect x="-37.5" width="450" fill="#ffffff" y="-37.499999" height="449.999989" fill-opacity="1"></rect><rect x="-37.5" width="450" fill="#ffffff" y="-37.499999" height="449.999989" fill-opacity="1"></rect><g clip-path="url(#a18b765f76)"><path fill="#000000" d="M 135.976562 12.894531 C 134.476562 12.917969 132.980469 13.296875 131.652344 14.0625 C 128.984375 15.574219 127.316406 18.355469 127.308594 21.375 L 127.308594 31.804688 C 74.242188 31.851562 31.527344 74.566406 31.527344 127.632812 L 31.527344 143.597656 L 31.492188 143.597656 L 31.492188 153.191406 C 31.492188 158.949219 36.152344 163.589844 41.910156 163.589844 C 47.671875 163.589844 52.296875 158.949219 52.296875 153.191406 L 52.296875 127.617188 C 52.296875 85.710938 85.390625 52.65625 127.308594 52.601562 L 127.308594 64.8125 C 127.308594 67.832031 128.976562 70.652344 131.652344 72.171875 C 131.660156 72.171875 131.667969 72.171875 131.683594 72.171875 C 133.011719 72.921875 134.476562 73.332031 135.976562 73.347656 C 137.476562 73.363281 138.980469 73.011719 140.335938 72.292969 L 181.792969 50.554688 C 183.628906 49.582031 185.082031 48.019531 185.820312 46.085938 C 186.191406 45.117188 186.371094 44.105469 186.371094 43.097656 C 186.371094 42.089844 186.191406 41.082031 185.820312 40.125 C 185.082031 38.207031 183.636719 36.605469 181.792969 35.621094 L 140.335938 13.917969 C 138.972656 13.207031 137.476562 12.871094 135.976562 12.894531 Z M 224.878906 30.984375 C 219.117188 30.984375 214.460938 35.621094 214.460938 41.382812 C 214.460938 47.140625 219.117188 51.761719 224.878906 51.761719 L 250.457031 51.761719 C 292.367188 51.761719 325.4375 84.859375 325.496094 126.757812 L 313.28125 126.757812 C 310.261719 126.757812 307.441406 128.425781 305.917969 131.097656 C 305.917969 131.105469 305.917969 131.113281 305.917969 131.128906 C 305.160156 132.460938 304.75 133.925781 304.742188 135.421875 C 304.734375 136.921875 305.089844 138.445312 305.796875 139.796875 L 327.542969 181.234375 C 328.515625 183.070312 330.078125 184.523438 332.011719 185.261719 C 332.972656 185.632812 333.996094 185.828125 335 185.828125 C 336.007812 185.828125 337.015625 185.632812 337.972656 185.261719 C 339.890625 184.523438 341.488281 183.082031 342.460938 181.234375 L 364.191406 139.796875 C 365.617188 137.082031 365.542969 133.765625 364.027344 131.097656 C 362.515625 128.433594 359.734375 126.765625 356.714844 126.757812 L 346.296875 126.757812 C 346.246094 73.703125 303.515625 31 250.441406 31 L 234.464844 31 L 234.464844 30.984375 Z M 187.488281 82.425781 C 184.484375 82.433594 181.480469 82.609375 178.492188 82.886719 C 172.039062 83.078125 166.679688 88.121094 166.1875 94.554688 L 163.972656 114.773438 C 160.445312 115.949219 157.003906 117.375 153.683594 119.046875 L 137.789062 106.355469 C 132.882812 102.160156 125.519531 102.359375 120.832031 106.796875 C 118.527344 108.722656 116.296875 110.738281 114.160156 112.855469 C 114.046875 112.96875 113.933594 113.082031 113.8125 113.203125 L 113.8125 113.21875 L 113.796875 113.234375 C 113.683594 113.347656 113.570312 113.46875 113.453125 113.578125 C 111.339844 115.722656 109.351562 117.953125 107.425781 120.265625 C 103.003906 124.96875 102.800781 132.296875 107.015625 137.195312 L 119.792969 153.054688 C 118.164062 156.308594 116.769531 159.683594 115.617188 163.136719 L 95.363281 165.351562 C 88.925781 165.84375 83.875 171.183594 83.691406 177.636719 C 83.417969 180.632812 83.246094 183.644531 83.230469 186.648438 C 83.230469 186.808594 83.230469 186.960938 83.230469 187.125 L 83.230469 187.148438 C 83.230469 187.308594 83.230469 187.460938 83.230469 187.621094 C 83.238281 190.628906 83.417969 193.648438 83.691406 196.636719 C 83.875 203.085938 88.925781 208.433594 95.363281 208.917969 L 115.617188 211.132812 C 116.792969 214.660156 118.21875 218.101562 119.894531 221.417969 L 107.183594 237.308594 C 102.984375 242.214844 103.1875 249.578125 107.625 254.265625 C 109.550781 256.566406 111.566406 258.796875 113.683594 260.933594 C 113.796875 261.046875 113.902344 261.167969 114.015625 261.277344 L 114.046875 261.277344 L 114.046875 261.296875 C 114.160156 261.40625 114.257812 261.527344 114.378906 261.640625 C 116.519531 263.75 118.785156 265.75 121.097656 267.667969 C 125.800781 272.089844 133.132812 272.289062 138.03125 268.078125 L 153.894531 255.304688 C 157.148438 256.929688 160.523438 258.324219 163.980469 259.476562 L 166.195312 279.707031 C 166.6875 286.144531 172.011719 291.191406 178.464844 291.378906 C 181.464844 291.644531 184.460938 291.820312 187.464844 291.835938 C 187.632812 291.835938 187.804688 291.835938 187.972656 291.835938 L 187.996094 291.835938 C 188.164062 291.835938 188.304688 291.835938 188.472656 291.835938 C 191.476562 291.820312 194.5 291.652344 197.488281 291.378906 C 203.941406 291.191406 209.289062 286.144531 209.773438 279.707031 L 211.988281 259.476562 C 215.515625 258.308594 218.957031 256.882812 222.277344 255.214844 L 238.171875 267.90625 C 243.078125 272.105469 250.441406 271.902344 255.128906 267.464844 C 257.433594 265.539062 259.667969 263.535156 261.800781 261.40625 C 261.914062 261.296875 262.011719 261.183594 262.132812 261.0625 L 262.164062 261.03125 C 262.277344 260.917969 262.390625 260.8125 262.511719 260.699219 C 264.621094 258.558594 266.617188 256.308594 268.535156 254 C 272.960938 249.292969 273.160156 241.964844 268.945312 237.066406 L 256.167969 221.210938 C 257.796875 217.957031 259.191406 214.589844 260.34375 211.125 L 280.597656 208.910156 C 287.035156 208.417969 292.085938 203.070312 292.269531 196.628906 C 292.535156 193.640625 292.714844 190.617188 292.730469 187.613281 C 292.730469 187.453125 292.730469 187.300781 292.730469 187.140625 L 292.730469 187.117188 C 292.730469 186.953125 292.730469 186.800781 292.730469 186.640625 C 292.714844 183.636719 292.542969 180.617188 292.269531 177.628906 C 292.085938 171.175781 287.035156 165.835938 280.597656 165.34375 L 260.34375 163.128906 C 259.167969 159.601562 257.742188 156.164062 256.066406 152.84375 L 268.792969 136.953125 C 272.992188 132.046875 272.773438 124.6875 268.335938 120 C 266.410156 117.695312 264.402344 115.464844 262.277344 113.332031 C 262.164062 113.21875 262.058594 113.113281 261.945312 113 C 261.945312 113 261.914062 112.992188 261.914062 112.984375 L 261.914062 112.96875 C 261.800781 112.855469 261.703125 112.734375 261.582031 112.621094 C 259.441406 110.511719 257.175781 108.523438 254.863281 106.597656 C 250.160156 102.175781 242.828125 101.972656 237.929688 106.1875 L 222.066406 118.960938 C 218.8125 117.332031 215.445312 115.949219 211.980469 114.804688 L 209.765625 94.570312 C 209.273438 88.136719 203.90625 83.070312 197.464844 82.886719 C 194.472656 82.609375 191.46875 82.441406 188.464844 82.425781 C 188.292969 82.425781 188.15625 82.425781 187.988281 82.425781 L 187.964844 82.425781 C 187.804688 82.425781 187.660156 82.425781 187.488281 82.425781 Z M 186.988281 139.136719 C 187.199219 139.136719 187.410156 139.136719 187.617188 139.136719 L 187.632812 139.136719 C 187.746094 139.136719 187.867188 139.136719 187.980469 139.136719 C 214.496094 139.136719 235.988281 160.625 235.988281 187.132812 C 235.988281 213.636719 214.496094 235.125 187.980469 235.125 C 161.46875 235.125 139.972656 213.636719 139.972656 187.132812 C 139.972656 161.003906 160.863281 139.675781 186.988281 139.136719 Z M 208.71875 167.324219 C 207 167.480469 205.316406 168.132812 203.898438 169.273438 L 179.382812 189.113281 L 171.625 179.519531 C 168.566406 175.734375 162.917969 175.140625 159.132812 178.199219 C 155.34375 181.269531 154.765625 186.90625 157.824219 190.691406 L 171.136719 207.128906 C 171.144531 207.144531 171.152344 207.164062 171.167969 207.179688 C 174.226562 210.972656 179.875 211.566406 183.664062 208.5 L 215.066406 183.082031 C 218.859375 180.011719 219.441406 174.375 216.371094 170.589844 C 214.476562 168.226562 211.578125 167.078125 208.71875 167.324219 Z M 40.953125 188.53125 C 39.945312 188.53125 38.9375 188.726562 37.980469 189.097656 C 36.0625 189.835938 34.476562 191.28125 33.492188 193.125 L 11.765625 234.5625 C 10.335938 237.285156 10.410156 240.578125 11.925781 243.246094 C 13.441406 245.902344 16.226562 247.578125 19.238281 247.585938 L 29.65625 247.585938 C 29.699219 300.648438 72.429688 343.359375 125.511719 343.359375 L 141.496094 343.359375 L 141.496094 343.375 L 151.074219 343.375 C 156.835938 343.375 161.492188 338.738281 161.492188 332.976562 C 161.492188 327.21875 156.835938 322.582031 151.074219 322.582031 L 125.496094 322.582031 C 83.578125 322.582031 50.515625 289.5 50.457031 247.585938 L 62.671875 247.585938 C 65.691406 247.585938 68.511719 245.917969 70.035156 243.246094 L 70.035156 243.230469 C 70.785156 241.902344 71.195312 240.433594 71.210938 238.9375 C 71.226562 237.4375 70.875 235.917969 70.15625 234.5625 L 48.414062 193.125 C 47.4375 191.289062 45.875 189.835938 43.941406 189.097656 C 42.972656 188.726562 41.960938 188.53125 40.953125 188.53125 Z M 336.234375 210.667969 C 330.472656 210.667969 325.847656 215.304688 325.847656 221.0625 L 325.847656 246.636719 C 325.847656 288.542969 292.761719 321.597656 250.835938 321.652344 L 250.835938 309.445312 C 250.835938 306.421875 249.167969 303.605469 246.492188 302.082031 C 246.476562 302.082031 246.476562 302.082031 246.460938 302.082031 C 245.132812 301.324219 243.667969 300.914062 242.167969 300.90625 C 240.667969 300.898438 239.164062 301.253906 237.808594 301.960938 L 196.351562 323.699219 C 194.515625 324.675781 193.082031 326.238281 192.339844 328.167969 C 191.96875 329.128906 191.773438 330.152344 191.773438 331.15625 C 191.773438 332.164062 191.96875 333.171875 192.339844 334.128906 C 193.082031 336.046875 194.515625 337.65625 196.351562 338.632812 L 237.808594 360.339844 C 240.53125 361.765625 243.828125 361.714844 246.492188 360.195312 C 249.152344 358.679688 250.828125 355.902344 250.835938 352.878906 L 250.835938 342.449219 C 303.910156 342.402344 346.617188 299.691406 346.617188 246.621094 L 346.617188 230.65625 L 346.652344 230.65625 L 346.652344 221.0625 C 346.652344 215.304688 341.996094 210.667969 336.234375 210.667969 Z M 336.234375 210.667969 " fill-opacity="1" fill-rule="nonzero"></path></g></svg>