<svg xmlns="http://www.w3.org/2000/svg" xmlns:xlink="http://www.w3.org/1999/xlink" width="500" viewBox="0 0 375 374.999991" height="500" preserveAspectRatio="xMidYMid meet"><defs><clipPath id="151978df3f"><path d="M 44 3.746094 L 332 3.746094 L 332 370 L 44 370 Z M 44 3.746094 " clip-rule="nonzero"></path></clipPath></defs><rect x="-37.5" width="450" fill="#ffffff" y="-37.499999" height="449.999989" fill-opacity="1"></rect><rect x="-37.5" width="450" fill="#ffffff" y="-37.499999" height="449.999989" fill-opacity="1"></rect><g clip-path="url(#151978df3f)"><path fill="#000000" d="M 85.324219 196.617188 L 68.003906 177.066406 C 65.980469 174.777344 66.195312 171.277344 68.480469 169.246094 C 70.769531 167.226562 74.269531 167.4375 76.289062 169.730469 L 89.949219 185.148438 L 109.566406 167.882812 L 110.0625 167.027344 L 110.351562 167.195312 L 127.703125 151.925781 C 129.992188 149.902344 133.488281 150.121094 135.507812 152.414062 C 137.53125 154.710938 137.308594 158.210938 135.007812 160.238281 L 93.121094 197.105469 C 90.832031 199.117188 87.355469 198.917969 85.324219 196.617188 Z M 101.75 128.574219 C 76.421875 128.574219 55.824219 149.183594 55.824219 174.511719 C 55.824219 199.847656 76.421875 220.449219 101.75 220.449219 C 127.074219 220.449219 147.679688 199.847656 147.679688 174.511719 C 147.679688 149.183594 127.074219 128.574219 101.75 128.574219 Z M 112.824219 73.195312 L 112.824219 118.589844 C 146.664062 125.285156 167.027344 160.648438 155.546875 193.300781 L 195.445312 216.335938 L 195.445312 120.910156 Z M 283.601562 63.605469 L 260.226562 77.105469 L 177.609375 29.390625 L 200.984375 15.890625 Z M 206.515625 216.335938 L 289.140625 168.632812 L 289.140625 73.195312 L 265.761719 86.699219 L 265.761719 147.46875 C 265.761719 149.449219 264.707031 151.28125 262.992188 152.269531 L 238.195312 166.589844 C 234.488281 168.726562 229.894531 166.042969 229.894531 161.800781 L 229.894531 107.410156 L 206.515625 120.910156 Z M 141.734375 50.109375 L 224.359375 97.824219 L 200.984375 111.324219 L 118.363281 63.605469 Z M 238.195312 93.027344 L 152.804688 43.71875 L 166.539062 35.78125 L 254.691406 86.699219 L 254.691406 144.273438 L 240.964844 152.214844 L 240.964844 97.824219 C 240.964844 95.84375 239.910156 94.015625 238.195312 93.027344 Z M 101.75 231.523438 C 122.652344 231.523438 140.953125 220.210938 150.871094 203.382812 L 198.214844 230.722656 C 199.917969 231.710938 202.046875 231.710938 203.746094 230.722656 L 297.441406 176.617188 C 299.15625 175.628906 300.210938 173.804688 300.210938 171.828125 L 300.210938 63.605469 C 300.210938 61.632812 299.15625 59.804688 297.441406 58.8125 L 203.746094 4.703125 C 202.035156 3.714844 199.929688 3.714844 198.214844 4.703125 L 104.523438 58.8125 C 102.8125 59.804688 101.753906 61.632812 101.753906 63.605469 L 101.753906 117.503906 C 70.320312 117.503906 44.753906 143.082031 44.753906 174.511719 C 44.753906 205.957031 70.320312 231.523438 101.75 231.523438 Z M 317.894531 235.273438 L 255.589844 299.21875 C 253.757812 301.777344 247.722656 302.417969 244.277344 302.558594 L 167.035156 305.867188 C 162.316406 306.046875 157.78125 308.132812 155.769531 309.4375 L 150.363281 313.035156 L 136.945312 320.410156 L 104.917969 276.835938 C 120.460938 263.464844 136.742188 252.140625 159.460938 252.058594 L 228.855469 251.78125 C 233.925781 251.726562 242.492188 260.875 236.308594 267.289062 C 234.355469 269.316406 231.921875 270.253906 230.832031 270.261719 L 194.367188 270.59375 C 191.316406 270.628906 188.855469 273.128906 188.886719 276.183594 C 188.914062 279.25 191.390625 281.679688 194.46875 281.667969 L 230.941406 281.335938 C 238.183594 281.261719 246.230469 275.269531 248.6875 267.792969 C 252.15625 267.195312 255.640625 265.679688 259.085938 263.265625 L 314.4375 225.46875 C 316.039062 225.226562 318.183594 225.296875 319.28125 226.972656 C 320.371094 228.636719 320.34375 231.828125 317.894531 235.273438 Z M 130.640625 335.792969 C 132.003906 334.789062 132.3125 332.796875 131.308594 331.433594 L 130.929688 330.910156 L 90.765625 276.28125 C 89.761719 274.910156 87.765625 274.617188 86.40625 275.617188 L 56.625 297.515625 C 55.25 298.523438 54.949219 300.507812 55.957031 301.875 L 96.496094 357.027344 C 97.5 358.398438 99.492188 358.699219 100.855469 357.695312 Z M 328.542969 220.910156 C 332.484375 226.921875 331.707031 235.261719 326.574219 242.160156 C 326.425781 242.359375 326.261719 242.546875 326.089844 242.722656 L 264.292969 306.066406 C 262.367188 308.566406 259.757812 310.398438 256.328125 311.640625 C 253.441406 312.761719 248.308594 313.480469 244.714844 313.625 L 167.457031 316.933594 C 162.761719 317.105469 159.445312 320.640625 155.890625 322.632812 L 142.582031 329.9375 C 143.882812 335.328125 141.941406 341.226562 137.195312 344.710938 L 107.410156 366.621094 C 101.152344 371.230469 92.246094 369.945312 87.582031 363.59375 L 47.035156 308.445312 C 42.410156 302.140625 43.769531 293.230469 50.058594 288.597656 L 79.851562 266.6875 C 85.535156 262.515625 93.316406 263.21875 98.191406 268.019531 C 114.71875 253.882812 133.355469 241.078125 159.414062 240.988281 L 228.75 240.710938 C 237.394531 240.636719 245.941406 247.9375 248.636719 256.394531 C 249.953125 255.921875 251.335938 255.175781 252.789062 254.160156 L 309.140625 215.683594 C 309.699219 215.296875 310.335938 215.015625 311.003906 214.867188 C 318.371094 213.136719 324.925781 215.394531 328.542969 220.910156 Z M 328.542969 220.910156 " fill-opacity="1" fill-rule="evenodd"></path></g></svg>