<svg xmlns="http://www.w3.org/2000/svg" xmlns:xlink="http://www.w3.org/1999/xlink" width="500" viewBox="0 0 375 374.999991" height="500" preserveAspectRatio="xMidYMid meet"><defs><clipPath id="976915781e"><path d="M 24.085938 24.085938 L 350 24.085938 L 350 350 L 24.085938 350 Z M 24.085938 24.085938 " clip-rule="nonzero"></path></clipPath></defs><rect x="-37.5" width="450" fill="#ffffff" y="-37.499999" height="449.999989" fill-opacity="1"></rect><rect x="-37.5" width="450" fill="#ffffff" y="-37.499999" height="449.999989" fill-opacity="1"></rect><g clip-path="url(#976915781e)"><path fill="#000000" d="M 273.964844 65.296875 C 270.324219 65.082031 267.546875 61.957031 267.761719 58.316406 C 267.976562 54.675781 271.101562 51.898438 274.742188 52.113281 L 316.191406 54.675781 C 319.832031 54.886719 322.609375 58.015625 322.394531 61.65625 C 322.382812 61.890625 322.355469 62.125 322.316406 62.351562 L 315.386719 103.300781 C 314.789062 106.898438 311.386719 109.328125 307.785156 108.730469 C 304.1875 108.128906 301.757812 104.726562 302.359375 101.128906 L 306.574219 76.230469 L 218.566406 138.257812 C 216.34375 139.824219 213.285156 139.902344 210.945312 138.238281 L 164.824219 105.5 L 102.328125 155.226562 C 99.46875 157.496094 95.316406 157.019531 93.046875 154.164062 C 90.773438 151.308594 91.25 147.15625 94.105469 144.882812 L 160.484375 92.070312 C 162.921875 90.132812 166.308594 90.195312 168.660156 92.035156 L 214.777344 124.773438 L 297.121094 66.726562 Z M 135.402344 24.085938 C 73.925781 24.085938 24.085938 73.925781 24.085938 135.402344 C 24.085938 196.882812 73.925781 246.71875 135.402344 246.71875 C 160.53125 246.71875 183.714844 238.390625 202.347656 224.34375 L 229.035156 251.03125 C 225.878906 256.492188 226.628906 263.632812 231.289062 268.289062 L 308.535156 345.535156 C 314.085938 351.085938 323.171875 351.085938 328.722656 345.535156 L 345.535156 328.722656 C 351.085938 323.171875 351.085938 314.085938 345.535156 308.535156 L 268.289062 231.289062 C 263.632812 226.628906 256.492188 225.878906 251.03125 229.035156 L 224.347656 202.347656 C 238.390625 183.714844 246.722656 160.535156 246.722656 135.40625 C 246.722656 135.144531 246.710938 134.882812 246.710938 134.621094 C 235.253906 142.699219 223.792969 150.777344 212.335938 158.855469 C 202.300781 191.824219 171.65625 215.816406 135.402344 215.816406 C 90.996094 215.816406 54.992188 179.8125 54.992188 135.402344 C 54.992188 90.996094 90.996094 54.992188 135.402344 54.992188 C 169.082031 54.992188 197.917969 75.699219 209.890625 105.074219 L 214.804688 108.5625 L 238.023438 92.195312 C 221.152344 52.175781 181.558594 24.085938 135.402344 24.085938 Z M 135.402344 24.085938 " fill-opacity="1" fill-rule="evenodd"></path></g></svg>